<?xml version="1.0" encoding="UTF-8" standalone="no"?>
<svg
   xmlns:dc="http://purl.org/dc/elements/1.1/"
   xmlns:cc="http://creativecommons.org/ns#"
   xmlns:rdf="http://www.w3.org/1999/02/22-rdf-syntax-ns#"
   xmlns:svg="http://www.w3.org/2000/svg"
   xmlns="http://www.w3.org/2000/svg"
   xmlns:xlink="http://www.w3.org/1999/xlink"
   xmlns:sodipodi="http://sodipodi.sourceforge.net/DTD/sodipodi-0.dtd"
   xmlns:inkscape="http://www.inkscape.org/namespaces/inkscape"
   id="svg4306"
   width="22"
   height="22"
   version="1.1"
   style="enable-background:new"
   sodipodi:docname="close.svg"
   inkscape:version="0.92.4 5da689c313, 2019-01-14">
  <metadata
     id="metadata31">
    <rdf:RDF>
      <cc:Work
         rdf:about="">
        <dc:format>image/svg+xml</dc:format>
        <dc:type
           rdf:resource="http://purl.org/dc/dcmitype/StillImage" />
        <dc:title />
      </cc:Work>
    </rdf:RDF>
  </metadata>
  <defs
     id="defs29">
    <linearGradient
       inkscape:collect="always"
       id="linearGradient1777">
      <stop
         style="stop-color:#ff7d50;stop-opacity:1"
         offset="0"
         id="stop1773" />
      <stop
         style="stop-color:#ff509b;stop-opacity:1"
         offset="1"
         id="stop1775" />
    </linearGradient>
    <linearGradient
       inkscape:collect="always"
       id="linearGradient1769">
      <stop
         style="stop-color:#ff7d50;stop-opacity:1"
         offset="0"
         id="stop1765" />
      <stop
         style="stop-color:#ff509b;stop-opacity:1"
         offset="1"
         id="stop1767" />
    </linearGradient>
    <linearGradient
       inkscape:collect="always"
       id="linearGradient1761">
      <stop
         style="stop-color:#ff7d50;stop-opacity:1"
         offset="0"
         id="stop1757" />
      <stop
         style="stop-color:#ff509b;stop-opacity:1"
         offset="1"
         id="stop1759" />
    </linearGradient>
    <filter
       color-interpolation-filters="sRGB"
       height="1.048"
       width="1.048"
       y="-.024"
       x="-.024"
       id="filter11290">
      <feGaussianBlur
         id="feGaussianBlur880"
         stdDeviation="0.15875313" />
    </filter>
    <linearGradient
       gradientUnits="userSpaceOnUse"
       gradientTransform="translate(-0.0080452,-5.0139e-5)"
       y2=".93425"
       y1="14.069"
       x2="16.101"
       x1="2.9667"
       id="linearGradient1005">
      <stop
         id="stop883"
         offset="0"
         stop-color="#ff7d50" />
      <stop
         id="stop885"
         offset=".51596"
         stop-color="#fa4b5a" />
      <stop
         id="stop887"
         offset="1"
         stop-color="#ff509b" />
    </linearGradient>
    <clipPath
       id="aw">
      <path
         id="path890"
         d="m481 318h22v22h-22z" />
    </clipPath>
    <clipPath
       id="av">
      <path
         id="path893"
         d="m507 318h22v22h-22z" />
    </clipPath>
    <clipPath
       id="au">
      <path
         id="path896"
         d="m530 318h22v22h-22z" />
    </clipPath>
    <clipPath
       id="at">
      <path
         id="path899"
         d="m672 1064c0-1.105 4.925-2 11-2s11 0.895 11 2-4.925 2-11 2-11-0.895-11-2" />
    </clipPath>
    <clipPath
       id="as">
      <path
         id="path902"
         d="m660 1057h51v65.001h-51z" />
    </clipPath>
    <clipPath
       id="ar">
      <path
         id="path905"
         d="m659 517h53v18h-53z" />
    </clipPath>
    <clipPath
       id="aq">
      <path
         id="path908"
         d="m659 500h53v18h-53z" />
    </clipPath>
    <clipPath
       id="ap">
      <path
         id="path911"
         d="m648 112h73v60h-73z" />
    </clipPath>
    <clipPath
       id="ao">
      <path
         id="path914"
         d="m826 1056h59v60h-59z" />
    </clipPath>
    <clipPath
       id="an">
      <path
         id="path917"
         d="m805 276h100v100h-100z" />
    </clipPath>
    <clipPath
       id="am">
      <path
         id="path920"
         d="m145 1063.8h74.152v45.21h-74.152z" />
    </clipPath>
    <clipPath
       id="al">
      <path
         id="path923"
         d="m151 667h57v57h-57z" />
    </clipPath>
    <clipPath
       id="ak">
      <path
         id="path926"
         d="m154 697h51v51h-51z" />
    </clipPath>
    <clipPath
       id="aj">
      <path
         id="path929"
         d="m500.04 864.45h36.012v67.52h-36.012z" />
    </clipPath>
    <clipPath
       id="ai">
      <path
         id="path932"
         d="m836 870.54h47v55.539h-47z" />
    </clipPath>
    <clipPath
       id="ah">
      <path
         id="path935"
         d="m318.03 702.35h62.848v37.991h-62.848z" />
    </clipPath>
    <clipPath
       id="ag">
      <path
         id="path938"
         d="m485.03 133.35h62.847v37.991h-62.847z" />
    </clipPath>
    <clipPath
       id="af">
      <path
         id="path941"
         d="m493.37 677.93h45.643v68.067h-45.643z" />
    </clipPath>
    <clipPath
       id="ae">
      <path
         id="path944"
         d="m144.34 1018.2h71.467v78h-71.467z" />
    </clipPath>
    <clipPath
       id="ad">
      <path
         id="path947"
         d="m293.21 1068.6 66.323-38.292 36.047 62.435-66.323 38.292z" />
    </clipPath>
    <clipPath
       id="ac">
      <path
         id="path950"
         d="m488.86 1054.5h10v10.706h-10z" />
    </clipPath>
    <clipPath
       id="ab">
      <path
         id="path953"
         d="m508 1066.8h10.001v10.705h-10.001z" />
    </clipPath>
    <clipPath
       id="aa">
      <path
         id="path956"
         d="m525 1045.8h10v10.706h-10z" />
    </clipPath>
    <clipPath
       id="z">
      <path
         id="path959"
         d="m836 1043.7h25.5v31.5h-25.5z" />
    </clipPath>
    <clipPath
       id="y">
      <path
         id="path962"
         d="m838 1062.2h24v24h-24z" />
    </clipPath>
    <clipPath
       id="x">
      <path
         id="path965"
         d="m134 489.24h7v6h-7z" />
    </clipPath>
    <clipPath
       id="w">
      <path
         id="path968"
         d="m216 489.24h7v6h-7z" />
    </clipPath>
    <clipPath
       id="v">
      <path
         id="path971"
         d="m838 477.24h22v22h-22z" />
    </clipPath>
    <clipPath
       id="u">
      <path
         id="path974"
         d="m704 1061.2h25v25h-25z" />
    </clipPath>
    <clipPath
       id="t">
      <path
         id="path977"
         d="m663.04 1078.6-1.808-3.514-21.07-47.453c13.336-18.439 48.336-26.938 73.836-3.439 0.842 0 6.476 6.246 6 7l-18.386 25.895c-0.483 0.765-1.453 0.946-2.177 0.431l-15.505-11.011c-0.359-0.255-0.847-0.153-1.07 0.238l-18.272 31.869c-0.218 0.384-0.502 0.578-0.782 0.578-0.282 0-0.561-0.197-0.766-0.594" />
    </clipPath>
    <clipPath
       id="s">
      <path
         id="path980"
         d="m127 820.24h100v100h-100z" />
    </clipPath>
    <clipPath
       id="r">
      <path
         id="path983"
         d="m809 680.24c0-22.092 17.908-40 40-40s40 17.908 40 40c0 22.091-17.908 40-40 40s-40-17.909-40-40" />
    </clipPath>
    <clipPath
       id="q">
      <path
         id="path986"
         d="m658 469.24h44v45h-44z" />
    </clipPath>
    <clipPath
       id="p">
      <path
         id="path989"
         d="m651 271.24h58v58h-58z" />
    </clipPath>
    <clipPath
       id="o">
      <path
         id="path992"
         d="m662 307.24h38v8h-38z" />
    </clipPath>
    <clipPath
       id="n">
      <path
         id="path995"
         d="m858.98 137.24c0.013-0.101 0.021-0.203 0.021-0.307v-6.693h15.75c1.237 0 2.25-1.013 2.25-2.25v-11.25l-27-4.5-27 4.5v-2.25l27-4.5 27 4.5v-27c0-1.237-1.013-2.25-2.25-2.25h-49.5c-1.237 0-2.25 1.013-2.25 2.25v-4.25h54v54zm-35.979 0v-9.25c0 1.237 1.013 2.25 2.25 2.25h15.75v6.693c0 0.104 7e-3 0.207 0.02 0.307zm22.5-7h9v4.5h-9zm1.125-9c-0.62 0-1.125-0.506-1.125-1.125v-2.25c0-0.619 0.505-1.125 1.125-1.125h6.75c0.619 0 1.125 0.506 1.125 1.125v2.25c0 0.619-0.506 1.125-1.125 1.125z" />
    </clipPath>
    <clipPath
       id="m">
      <path
         id="path998"
         d="m531.27 136.24c6.325-2.29 10.727-8.277 10.727-15.484 0-11.316-10.2-20.563-25.65-34.575l-4.35-3.941-4.35 3.941c-15.45 14.012-25.65 23.259-25.65 34.575v-39.516h60v55zm-26.983 0c2.995-1.052 5.686-2.883 7.71-5.25 2.024 2.367 4.715 4.198 7.71 5.25zm-22.29 0v-15.484c0 7.207 4.402 13.194 10.727 15.484z" />
    </clipPath>
    <clipPath
       id="l">
      <path
         id="path1001"
         d="m648 79.241h64v64h-64z" />
    </clipPath>
    <clipPath
       id="k">
      <path
         id="path1004"
         d="m500 691.74c0-3.037 2.463-5.5 5.5-5.5s5.5 2.463 5.5 5.5-2.463 5.5-5.5 5.5-5.5-2.463-5.5-5.5" />
    </clipPath>
    <clipPath
       id="j">
      <path
         id="path1007"
         d="m500 669.74c0-3.037 2.463-5.5 5.5-5.5s5.5 2.463 5.5 5.5c0 3.038-2.463 5.5-5.5 5.5s-5.5-2.462-5.5-5.5" />
    </clipPath>
    <clipPath
       id="i">
      <path
         id="path1010"
         d="m494 680.74c0-3.037 2.462-5.5 5.5-5.5s5.5 2.463 5.5 5.5c0 3.038-2.462 5.5-5.5 5.5s-5.5-2.462-5.5-5.5" />
    </clipPath>
    <clipPath
       id="h">
      <path
         id="path1013"
         d="m513 691.74c0-3.037 2.463-5.5 5.5-5.5s5.5 2.463 5.5 5.5-2.463 5.5-5.5 5.5-5.5-2.463-5.5-5.5" />
    </clipPath>
    <clipPath
       id="g">
      <path
         id="path1016"
         d="m513 669.74c0-3.037 2.463-5.5 5.5-5.5s5.5 2.463 5.5 5.5c0 3.038-2.463 5.5-5.5 5.5s-5.5-2.462-5.5-5.5" />
    </clipPath>
    <clipPath
       id="f-0">
      <path
         id="path1019"
         d="m507 680.74c0-3.037 2.463-5.5 5.5-5.5s5.5 2.463 5.5 5.5c0 3.038-2.463 5.5-5.5 5.5s-5.5-2.462-5.5-5.5" />
    </clipPath>
    <clipPath
       id="e-7">
      <path
         id="path1022"
         d="m520 680.74c0-3.037 2.463-5.5 5.5-5.5s5.5 2.463 5.5 5.5c0 3.038-2.463 5.5-5.5 5.5s-5.5-2.462-5.5-5.5" />
    </clipPath>
    <clipPath
       id="d-8">
      <path
         id="path1025"
         d="m321 322.24c-4.97 0-9-4.029-9-9 0-4.97 4.03-9 9-9h45c4.971 0 9 4.03 9 9 0 4.971-4.029 9-9 9z" />
    </clipPath>
    <clipPath
       id="c">
      <path
         id="path1028"
         d="m322 297.24c-4.971 0-9-4.029-9-9 0-4.97 4.029-9 9-9h45c4.971 0 9 4.03 9 9 0 4.971-4.029 9-9 9z" />
    </clipPath>
    <clipPath
       id="b-6">
      <path
         id="path1031"
         d="m155 83.24h44v53h-44z" />
    </clipPath>
    <filter
       color-interpolation-filters="sRGB"
       height="1.1898"
       width="1.3198"
       y="-.094877"
       x="-.15989"
       id="filter2174">
      <feGaussianBlur
         id="feGaussianBlur1034"
         stdDeviation="0.25608494" />
    </filter>
    <linearGradient
       inkscape:collect="always"
       xlink:href="#linearGradient1761"
       id="linearGradient1763"
       x1="1296"
       y1="261"
       x2="1308"
       y2="249"
       gradientUnits="userSpaceOnUse" />
    <linearGradient
       inkscape:collect="always"
       xlink:href="#linearGradient1769"
       id="linearGradient1771"
       x1="1295.7609"
       y1="261.10107"
       x2="1308.1082"
       y2="249.15138"
       gradientUnits="userSpaceOnUse" />
    <linearGradient
       inkscape:collect="always"
       xlink:href="#linearGradient1777"
       id="linearGradient1779"
       x1="1295.7445"
       y1="260.82736"
       x2="1308.1082"
       y2="249.19099"
       gradientUnits="userSpaceOnUse" />
  </defs>
  <sodipodi:namedview
     pagecolor="#ffffff"
     bordercolor="#666666"
     borderopacity="1"
     objecttolerance="10"
     gridtolerance="10"
     guidetolerance="10"
     inkscape:pageopacity="0"
     inkscape:pageshadow="2"
     inkscape:window-width="1920"
     inkscape:window-height="973"
     id="namedview27"
     showgrid="true"
     inkscape:zoom="30.34131"
     inkscape:cx="38.319356"
     inkscape:cy="4.9746124"
     inkscape:window-x="0"
     inkscape:window-y="36"
     inkscape:window-maximized="1"
     inkscape:current-layer="svg4306">
    <inkscape:grid
       type="xygrid"
       id="grid878" />
  </sodipodi:namedview>
  <g
     id="active-center">
    <rect
       id="rect4175"
       width="22"
       height="22"
       x="0"
       y="0"
       style="opacity:0.00100002;fill:#000000;fill-opacity:1;fill-rule:nonzero;stroke:none;stroke-width:2;stroke-linecap:round;stroke-linejoin:round;stroke-miterlimit:4;stroke-dasharray:none;stroke-opacity:1" />
    <g
       inkscape:label="#g6254"
       transform="translate(-83.624992,158.63782)"
       id="titlebutton-close"
       style="display:inline">
      <g
         id="g6202"
         style="display:inline;opacity:1"
         transform="translate(-1207.375,-402.63782)">
        <ellipse
           cy="255"
           cx="1302"
           style="display:inline;opacity:0.95;fill:url(#linearGradient1763);fill-opacity:1;stroke:none;stroke-width:0;stroke-linecap:butt;stroke-linejoin:miter;stroke-miterlimit:4;stroke-dasharray:none;stroke-dashoffset:0;stroke-opacity:1"
           id="ellipse6176"
           rx="6"
           ry="6.0000005" />
        <path
           style="display:inline;opacity:0;fill:#6e6e6e;fill-opacity:1;stroke:none;stroke-width:0;stroke-linecap:butt;stroke-linejoin:miter;stroke-miterlimit:4;stroke-dasharray:none;stroke-dashoffset:0;stroke-opacity:1"
           d="m 1302,248 a 7,7 0 0 0 -7,7 7,7 0 0 0 7,7 7,7 0 0 0 7,-7 7,7 0 0 0 -7,-7 z m 0,1 a 6,6 0 0 1 6,6 6,6 0 0 1 -6,6 6,6 0 0 1 -6,-6 6,6 0 0 1 6,-6 z"
           id="path6178"
           inkscape:connector-curvature="0" />
        <g
           id="g6200"
           transform="translate(1294,247)"
           style="fill:#c0e3ff;fill-opacity:1">
          <g
             transform="translate(-81.0002,-967)"
             style="display:inline;fill:#c0e3ff;fill-opacity:1"
             inkscape:label="status"
             id="g6180" />
          <g
             transform="translate(-81.0002,-967)"
             inkscape:label="devices"
             id="g6182"
             style="fill:#c0e3ff;fill-opacity:1" />
          <g
             transform="translate(-81.0002,-967)"
             inkscape:label="apps"
             id="g6184"
             style="fill:#c0e3ff;fill-opacity:1" />
          <g
             transform="translate(-81.0002,-967)"
             inkscape:label="places"
             id="g6186"
             style="fill:#c0e3ff;fill-opacity:1" />
          <g
             transform="translate(-81.0002,-967)"
             inkscape:label="mimetypes"
             id="g6188"
             style="fill:#c0e3ff;fill-opacity:1" />
          <g
             transform="translate(-81.0002,-967)"
             style="display:inline;fill:#c0e3ff;fill-opacity:1"
             inkscape:label="emblems"
             id="g6190" />
          <g
             transform="translate(-81.0002,-967)"
             style="display:inline;fill:#c0e3ff;fill-opacity:1"
             inkscape:label="emotes"
             id="g6192" />
          <g
             transform="translate(-81.0002,-967)"
             style="display:inline;fill:#c0e3ff;fill-opacity:1"
             inkscape:label="categories"
             id="g6194" />
          <g
             transform="translate(-81.0002,-967)"
             style="display:inline;fill:#c0e3ff;fill-opacity:1"
             inkscape:label="actions"
             id="g6198" />
        </g>
      </g>
      <rect
         y="-155.63782"
         x="86.624992"
         height="16"
         width="16"
         id="rect6204"
         style="display:inline;opacity:1;fill:none;fill-opacity:1;stroke:none;stroke-width:1;stroke-linecap:butt;stroke-linejoin:miter;stroke-miterlimit:4;stroke-dasharray:none;stroke-dashoffset:0;stroke-opacity:0" />
    </g>
  </g>
  <g
     style="display:inline"
     transform="matrix(1.375,0,0,1.375,-118.50802,241.61301)"
     id="hover-center"
     inkscape:label="#hover-center">
    <g
       id="g6344"
       style="display:inline;opacity:1"
       transform="translate(-1207.375,-402.63782)">
      <ellipse
         cy="255"
         cx="1302"
         style="display:inline;opacity:0.95;fill:url(#linearGradient1771);fill-opacity:1;stroke:none;stroke-width:0;stroke-linecap:butt;stroke-linejoin:miter;stroke-miterlimit:4;stroke-dasharray:none;stroke-dashoffset:0;stroke-opacity:1"
         id="ellipse6320"
         rx="6"
         ry="6.0000005" />
      <path
         style="display:inline;opacity:0;fill:#6e6e6e;fill-opacity:1;stroke:none;stroke-width:0;stroke-linecap:butt;stroke-linejoin:miter;stroke-miterlimit:4;stroke-dasharray:none;stroke-dashoffset:0;stroke-opacity:1"
         d="m 1302,248 a 7,7 0 0 0 -7,7 7,7 0 0 0 7,7 7,7 0 0 0 7,-7 7,7 0 0 0 -7,-7 z m 0,1 a 6,6 0 0 1 6,6 6,6 0 0 1 -6,6 6,6 0 0 1 -6,-6 6,6 0 0 1 6,-6 z"
         id="path6322"
         inkscape:connector-curvature="0" />
      <g
         id="g6342"
         transform="translate(1294,247)"
         style="fill:#c0e3ff;fill-opacity:1">
        <g
           transform="translate(-81.0002,-967)"
           style="display:inline;fill:#c0e3ff;fill-opacity:1"
           inkscape:label="status"
           id="g6324" />
        <g
           transform="translate(-81.0002,-967)"
           inkscape:label="devices"
           id="g6326"
           style="fill:#c0e3ff;fill-opacity:1" />
        <g
           transform="translate(-81.0002,-967)"
           inkscape:label="apps"
           id="g6328"
           style="fill:#c0e3ff;fill-opacity:1" />
        <g
           transform="translate(-81.0002,-967)"
           inkscape:label="places"
           id="g6330"
           style="fill:#c0e3ff;fill-opacity:1" />
        <g
           transform="translate(-81.0002,-967)"
           inkscape:label="mimetypes"
           id="g6332"
           style="fill:#c0e3ff;fill-opacity:1" />
        <g
           transform="translate(-81.0002,-967)"
           style="display:inline;fill:#c0e3ff;fill-opacity:1"
           inkscape:label="emblems"
           id="g6334" />
        <g
           transform="translate(-81.0002,-967)"
           style="display:inline;fill:#c0e3ff;fill-opacity:1"
           inkscape:label="emotes"
           id="g6336" />
        <g
           transform="translate(-81.0002,-967)"
           style="display:inline;fill:#c0e3ff;fill-opacity:1"
           inkscape:label="categories"
           id="g6338" />
        <g
           transform="translate(-81.0002,-967)"
           style="display:inline;fill:#c0e3ff;fill-opacity:1"
           inkscape:label="actions"
           id="g6340" />
      </g>
    </g>
    <path
       style="color:#bebebe;font-style:normal;font-variant:normal;font-weight:normal;font-stretch:normal;font-size:medium;line-height:normal;font-family:'Andale Mono';-inkscape-font-specification:'Andale Mono';text-indent:0;text-align:start;text-decoration:none;text-decoration-line:none;letter-spacing:normal;word-spacing:normal;text-transform:none;writing-mode:lr-tb;direction:ltr;text-anchor:start;display:inline;overflow:visible;visibility:visible;opacity:1;fill:#ffffff;fill-opacity:1;fill-rule:nonzero;stroke:none;stroke-width:1.78124988;marker:none;enable-background:new"
       id="path6346"
       d="m 91.626212,-150.63773 h 0.75 c 0.008,-9e-5 0.0156,-3.5e-4 0.0234,0 0.19122,0.008 0.3824,0.0964 0.51563,0.23437 l 1.71093,1.71094 1.73438,-1.71094 c 0.19922,-0.17287 0.335,-0.22912 0.51562,-0.23437 h 0.75 v 0.75 c 0,0.21485 -0.0257,0.41298 -0.1875,0.5625 l -1.71093,1.71093 1.6875,1.6875 c 0.14114,0.14113 0.21093,0.34009 0.21093,0.53907 v 0.75 h -0.75 c -0.19897,-1e-5 -0.39793,-0.0698 -0.53906,-0.21094 l -1.71094,-1.71094 -1.71093,1.71094 c -0.14113,0.14114 -0.3401,0.21094 -0.53907,0.21094 h -0.75 v -0.75 c 0,-0.19897 0.0698,-0.39794 0.21094,-0.53907 l 1.71094,-1.6875 -1.71094,-1.71093 c -0.15805,-0.14598 -0.22737,-0.35194 -0.21094,-0.5625 v -0.75 z"
       inkscape:connector-curvature="0" />
    <rect
       y="-155.63782"
       x="86.624992"
       height="16"
       width="16"
       id="rect6348"
       style="display:inline;opacity:1;fill:none;fill-opacity:1;stroke:none;stroke-width:1;stroke-linecap:butt;stroke-linejoin:miter;stroke-miterlimit:4;stroke-dasharray:none;stroke-dashoffset:0;stroke-opacity:0" />
  </g>
  <g
     style="display:inline"
     id="pressed-center"
     transform="matrix(1.375,0,0,1.375,-118.50802,272.98938)"
     inkscape:label="#pressed-center">
    <g
       transform="translate(-1207.375,-402.63782)"
       style="display:inline;opacity:1"
       id="g6440">
      <ellipse
         ry="6.0000005"
         rx="6"
         id="ellipse6416"
         style="display:inline;opacity:0.95;fill:url(#linearGradient1779);fill-opacity:1;stroke:none;stroke-width:0;stroke-linecap:butt;stroke-linejoin:miter;stroke-miterlimit:4;stroke-dasharray:none;stroke-dashoffset:0;stroke-opacity:1"
         cx="1302"
         cy="255" />
      <path
         inkscape:connector-curvature="0"
         id="path6418"
         d="m 1302,248 a 7,7 0 0 0 -7,7 7,7 0 0 0 7,7 7,7 0 0 0 7,-7 7,7 0 0 0 -7,-7 z m 0,1 a 6,6 0 0 1 6,6 6,6 0 0 1 -6,6 6,6 0 0 1 -6,-6 6,6 0 0 1 6,-6 z"
         style="display:inline;opacity:0;fill:#6e6e6e;fill-opacity:1;stroke:none;stroke-width:0;stroke-linecap:butt;stroke-linejoin:miter;stroke-miterlimit:4;stroke-dasharray:none;stroke-dashoffset:0;stroke-opacity:1" />
      <g
         style="fill:#c0e3ff;fill-opacity:1"
         transform="translate(1294,247)"
         id="g6438">
        <g
           id="g6420"
           inkscape:label="status"
           style="display:inline;fill:#c0e3ff;fill-opacity:1"
           transform="translate(-81.0002,-967)" />
        <g
           style="fill:#c0e3ff;fill-opacity:1"
           id="g6422"
           inkscape:label="devices"
           transform="translate(-81.0002,-967)" />
        <g
           style="fill:#c0e3ff;fill-opacity:1"
           id="g6424"
           inkscape:label="apps"
           transform="translate(-81.0002,-967)" />
        <g
           style="fill:#c0e3ff;fill-opacity:1"
           id="g6426"
           inkscape:label="places"
           transform="translate(-81.0002,-967)" />
        <g
           style="fill:#c0e3ff;fill-opacity:1"
           id="g6428"
           inkscape:label="mimetypes"
           transform="translate(-81.0002,-967)" />
        <g
           id="g6430"
           inkscape:label="emblems"
           style="display:inline;fill:#c0e3ff;fill-opacity:1"
           transform="translate(-81.0002,-967)" />
        <g
           id="g6432"
           inkscape:label="emotes"
           style="display:inline;fill:#c0e3ff;fill-opacity:1"
           transform="translate(-81.0002,-967)" />
        <g
           id="g6434"
           inkscape:label="categories"
           style="display:inline;fill:#c0e3ff;fill-opacity:1"
           transform="translate(-81.0002,-967)" />
        <g
           id="g6436"
           inkscape:label="actions"
           style="display:inline;fill:#c0e3ff;fill-opacity:1"
           transform="translate(-81.0002,-967)" />
      </g>
    </g>
    <path
       inkscape:connector-curvature="0"
       d="m 91.626212,-150.63773 h 0.75 c 0.008,-9e-5 0.0156,-3.5e-4 0.0234,0 0.19122,0.008 0.3824,0.0964 0.51563,0.23437 l 1.71093,1.71094 1.73438,-1.71094 c 0.19922,-0.17287 0.335,-0.22912 0.51562,-0.23437 h 0.75 v 0.75 c 0,0.21485 -0.0257,0.41298 -0.1875,0.5625 l -1.71093,1.71093 1.6875,1.6875 c 0.14114,0.14113 0.21093,0.34009 0.21093,0.53907 v 0.75 h -0.75 c -0.19897,-1e-5 -0.39793,-0.0698 -0.53906,-0.21094 l -1.71094,-1.71094 -1.71093,1.71094 c -0.14113,0.14114 -0.3401,0.21094 -0.53907,0.21094 h -0.75 v -0.75 c 0,-0.19897 0.0698,-0.39794 0.21094,-0.53907 l 1.71094,-1.6875 -1.71094,-1.71093 c -0.15805,-0.14598 -0.22737,-0.35194 -0.21094,-0.5625 v -0.75 z"
       id="path6442"
       style="color:#bebebe;font-style:normal;font-variant:normal;font-weight:normal;font-stretch:normal;font-size:medium;line-height:normal;font-family:'Andale Mono';-inkscape-font-specification:'Andale Mono';text-indent:0;text-align:start;text-decoration:none;text-decoration-line:none;letter-spacing:normal;word-spacing:normal;text-transform:none;writing-mode:lr-tb;direction:ltr;text-anchor:start;display:inline;overflow:visible;visibility:visible;opacity:0.25;fill:#000000;fill-opacity:1;fill-rule:nonzero;stroke:none;stroke-width:1.78124988;marker:none;enable-background:new" />
    <rect
       style="display:inline;opacity:1;fill:none;fill-opacity:1;stroke:none;stroke-width:1;stroke-linecap:butt;stroke-linejoin:miter;stroke-miterlimit:4;stroke-dasharray:none;stroke-dashoffset:0;stroke-opacity:0"
       id="rect6444"
       width="16"
       height="16"
       x="86.624992"
       y="-155.63782" />
  </g>
  <g
     id="inactive-center"
     transform="translate(-40.868375,-0.26366679)">
    <rect
       id="rect4225"
       width="22"
       height="22"
       x="69"
       y="0"
       style="opacity:0.00100002;fill:#000000;fill-opacity:1;fill-rule:nonzero;stroke:none;stroke-width:2;stroke-linecap:round;stroke-linejoin:round;stroke-miterlimit:4;stroke-dasharray:none;stroke-opacity:1" />
    <g
       inkscape:label="#g6536"
       id="titlebutton-close-backdrop"
       transform="translate(-14.624992,158.63782)"
       style="display:inline">
      <g
         transform="translate(-1207.375,-402.63782)"
         style="display:inline;opacity:1"
         id="g6532">
        <ellipse
           ry="6.0000005"
           rx="6"
           id="ellipse6508"
           style="display:inline;opacity:0.95;fill:#323232;fill-opacity:1;stroke:none;stroke-width:0;stroke-linecap:butt;stroke-linejoin:miter;stroke-miterlimit:4;stroke-dasharray:none;stroke-dashoffset:0;stroke-opacity:1"
           cx="1302"
           cy="255" />
        <path
           inkscape:connector-curvature="0"
           id="path6510"
           d="m 1302,248 a 7,7 0 0 0 -7,7 7,7 0 0 0 7,7 7,7 0 0 0 7,-7 7,7 0 0 0 -7,-7 z m 0,1 a 6,6 0 0 1 6,6 6,6 0 0 1 -6,6 6,6 0 0 1 -6,-6 6,6 0 0 1 6,-6 z"
           style="display:inline;opacity:0;fill:#6e6e6e;fill-opacity:1;stroke:none;stroke-width:0;stroke-linecap:butt;stroke-linejoin:miter;stroke-miterlimit:4;stroke-dasharray:none;stroke-dashoffset:0;stroke-opacity:1" />
        <g
           style="fill:#c0e3ff;fill-opacity:1"
           transform="translate(1294,247)"
           id="g6530">
          <g
             id="g6512"
             inkscape:label="status"
             style="display:inline;fill:#c0e3ff;fill-opacity:1"
             transform="translate(-81.0002,-967)" />
          <g
             style="fill:#c0e3ff;fill-opacity:1"
             id="g6514"
             inkscape:label="devices"
             transform="translate(-81.0002,-967)" />
          <g
             style="fill:#c0e3ff;fill-opacity:1"
             id="g6516"
             inkscape:label="apps"
             transform="translate(-81.0002,-967)" />
          <g
             style="fill:#c0e3ff;fill-opacity:1"
             id="g6518"
             inkscape:label="places"
             transform="translate(-81.0002,-967)" />
          <g
             style="fill:#c0e3ff;fill-opacity:1"
             id="g6520"
             inkscape:label="mimetypes"
             transform="translate(-81.0002,-967)" />
          <g
             id="g6522"
             inkscape:label="emblems"
             style="display:inline;fill:#c0e3ff;fill-opacity:1"
             transform="translate(-81.0002,-967)" />
          <g
             id="g6524"
             inkscape:label="emotes"
             style="display:inline;fill:#c0e3ff;fill-opacity:1"
             transform="translate(-81.0002,-967)" />
          <g
             id="g6526"
             inkscape:label="categories"
             style="display:inline;fill:#c0e3ff;fill-opacity:1"
             transform="translate(-81.0002,-967)" />
          <g
             id="g6528"
             inkscape:label="actions"
             style="display:inline;fill:#c0e3ff;fill-opacity:1"
             transform="translate(-81.0002,-967)" />
        </g>
      </g>
      <rect
         style="display:inline;opacity:1;fill:none;fill-opacity:1;stroke:none;stroke-width:1;stroke-linecap:butt;stroke-linejoin:miter;stroke-miterlimit:4;stroke-dasharray:none;stroke-dashoffset:0;stroke-opacity:0"
         id="rect6534"
         width="16"
         height="16"
         x="86.624992"
         y="-155.63782" />
    </g>
  </g>
  <use
     x="0"
     y="0"
     xlink:href="#inactive-center"
     id="deactivated-center"
     transform="translate(29.530697)"
     width="100%"
     height="100%" />
</svg>
