<?xml version="1.0" encoding="UTF-8" standalone="no"?>
<svg
   xmlns:dc="http://purl.org/dc/elements/1.1/"
   xmlns:cc="http://creativecommons.org/ns#"
   xmlns:rdf="http://www.w3.org/1999/02/22-rdf-syntax-ns#"
   xmlns:svg="http://www.w3.org/2000/svg"
   xmlns="http://www.w3.org/2000/svg"
   xmlns:xlink="http://www.w3.org/1999/xlink"
   xmlns:sodipodi="http://sodipodi.sourceforge.net/DTD/sodipodi-0.dtd"
   xmlns:inkscape="http://www.inkscape.org/namespaces/inkscape"
   width="257"
   height="161"
   version="1.0"
   id="svg184"
   sodipodi:docname="viewitem.svg"
   inkscape:version="0.92.4 5da689c313, 2019-01-14">
  <metadata
     id="metadata188">
    <rdf:RDF>
      <cc:Work
         rdf:about="">
        <dc:format>image/svg+xml</dc:format>
        <dc:type
           rdf:resource="http://purl.org/dc/dcmitype/StillImage" />
        <dc:title />
      </cc:Work>
    </rdf:RDF>
  </metadata>
  <sodipodi:namedview
     pagecolor="#484848"
     bordercolor="#666666"
     borderopacity="1"
     objecttolerance="10"
     gridtolerance="10"
     guidetolerance="10"
     inkscape:pageopacity="0"
     inkscape:pageshadow="2"
     inkscape:window-width="1920"
     inkscape:window-height="1027"
     id="namedview186"
     showgrid="true"
     inkscape:zoom="4"
     inkscape:cx="32.536632"
     inkscape:cy="78.204402"
     inkscape:window-x="0"
     inkscape:window-y="28"
     inkscape:window-maximized="1"
     inkscape:current-layer="svg184">
    <inkscape:grid
       type="xygrid"
       id="grid1102" />
  </sodipodi:namedview>
  <defs
     id="defs3">
    <style
       id="current-color-scheme"
       type="text/css">.ColorScheme-Text {
        color:#7B7C7E;
      }
      .ColorScheme-Background{
        color:#EFF0F1;
      }
      .ColorScheme-Highlight{
        color:#3DAEE6;
      }
      .ColorScheme-ViewText {
        color:#7B7C7E;
      }
      .ColorScheme-ViewBackground{
        color:#FCFCFC;
      }
      .ColorScheme-ViewHover {
        color:#3DAEE6;
      }
      .ColorScheme-ViewFocus{
        color:#1E92FF;
      }
      .ColorScheme-ButtonText {
        color:#7B7C7E;
      }
      .ColorScheme-ButtonBackground{
        color:#EFF0F1;
      }
      .ColorScheme-ButtonHover {
        color:#3DAEE6;
      }
      .ColorScheme-ButtonFocus{
        color:#1E92FF;
      }</style>
  </defs>
  <rect
     style="opacity:0.875;fill:#008000"
     height="40"
     width="40"
     y="-90.320007"
     x="49.929993"
     id="hint-tile-center" />
  <path
     style="color:#3daee6;opacity:0.15;fill:#ffffff;stroke-width:0.99999994;fill-opacity:1"
     inkscape:connector-curvature="0"
     d="M 22,21 V 69 H 70 V 21 Z"
     class="ColorScheme-Highlight"
     id="selected-center" />
  <g
     transform="matrix(1,0,0,3,-169.14,-2468.58)"
     id="selected-left"
     style="opacity:1">
    <path
       style="color:#3daee6;opacity:0.15;fill:#ffffff;fill-opacity:1"
       inkscape:connector-curvature="0"
       id="path7"
       d="m 186.14,829.86 v 16 h 4 v -16 z"
       class="ColorScheme-Highlight" />
  </g>
  <g
     transform="translate(-169.14001,-809.86005)"
     id="selected-topleft"
     style="opacity:1">
    <path
       style="color:#3daee6;opacity:0.15;fill:#ffffff;fill-opacity:1;stroke-width:1"
       d="M 21 16.099609 C 19.035723 16.495489 17.495489 18.035723 17.099609 20 L 21 20 L 21 16.099609 z "
       transform="translate(169.14001,809.86005)"
       id="path10" />
  </g>
  <g
     transform="matrix(0.36641221,0,0,1,-47.669618,-809.86)"
     id="selected-top"
     style="opacity:1">
    <path
       style="color:#3daee6;opacity:0.15;fill:#ffffff;fill-opacity:1"
       inkscape:connector-curvature="0"
       id="path13"
       d="m 190.14,825.86 v 4 h 131 v -4 z"
       class="ColorScheme-Highlight" />
  </g>
  <g
     transform="matrix(1.4999981,0,0,1.4999981,-412.70938,-1222.7884)"
     id="selected-topright"
     style="opacity:1">
    <path
       style="color:#3daee6;opacity:0.15;fill:#ffffff;fill-opacity:1;stroke-width:0.99999732"
       d="M 71 16.099609 L 71 20 L 74.900391 20 C 74.504511 18.035723 72.964277 16.495489 71 16.099609 z "
       transform="matrix(0.66666751,0,0,0.66666751,275.13994,815.1933)"
       id="path16" />
  </g>
  <g
     transform="matrix(1,0,0,3,-250.14,-2468.58)"
     id="selected-right"
     style="opacity:1">
    <path
       style="color:#3daee6;opacity:0.15;fill:#ffffff;fill-opacity:1"
       inkscape:connector-curvature="0"
       id="path19"
       d="m 325.14,829.86 v 16 h -4 v -16 z"
       class="ColorScheme-Highlight" />
  </g>
  <path
     style="opacity:0;fill:#000000;fill-opacity:0.92814373;stroke-width:0.99999964"
     inkscape:connector-curvature="0"
     d="m 105.00003,20.999997 v 47.999988 h 48 V 20.999997 Z"
     id="normal-center" />
  <g
     style="opacity:0;fill:#000000;fill-opacity:0.92814373"
     transform="matrix(0.57142916,0,0,0.57142916,-4.651536,-454.20619)"
     id="normal-topleft">
    <rect
       style="opacity:0.52100004;fill:#000000;fill-opacity:0.92814373;stroke-width:3.50011683"
       id="rect62"
       height="7.0001078"
       width="7.0000095"
       y="822.85999"
       x="183.14" />
    <g
       id="g60"
       style="fill:#000000;fill-opacity:0.92814373">
      <path
         style="opacity:0.82273003;fill:#000000;fill-opacity:0.92814373"
         inkscape:connector-curvature="0"
         id="path54"
         d="m 186.14,829.86 h 4 v -4 h -1.4688 c -1.405,0 -2.5312,1.1159 -2.5312,2.5312 z" />
      <path
         style="opacity:0.85;fill:#000000;fill-opacity:0.92814373"
         inkscape:connector-curvature="0"
         id="path56"
         d="m 185.14,828.39 c 0,-1.9482 1.5884,-3.5312 3.5312,-3.5312 h 1.4688 v 1 h -1.4688 c -1.405,0 -2.5312,1.1159 -2.5312,2.5312 v 1.4688 h -1 z" />
      <path
         style="fill:#000000;fill-opacity:0.92814373"
         inkscape:connector-curvature="0"
         id="path58"
         d="m 186.14,829.86 h 1 v -1 c 0,-1.4154 0.59498,-2 2,-2 h 1 v -1 h -1.4688 c -1.405,0 -2.5312,1.1159 -2.5312,2.5312 z" />
    </g>
  </g>
  <g
     style="opacity:0;fill:#000000;fill-opacity:0.92814373"
     transform="matrix(0.36641296,0,0,0.57142728,35.330167,-454.20464)"
     id="normal-top">
    <g
       id="g71"
       style="fill:#000000;fill-opacity:0.92814373">
      <path
         style="opacity:0.82273003;fill:#000000;fill-opacity:0.92814373"
         inkscape:connector-curvature="0"
         id="path65"
         d="m 190.14,825.86 v 4 h 131 v -4 z" />
      <path
         style="opacity:0.85;fill:#000000;fill-opacity:0.92814373"
         inkscape:connector-curvature="0"
         id="path67"
         d="m 190.14,824.86 v 1 h 131 v -1 z" />
      <path
         style="fill:#000000;fill-opacity:0.92814373"
         inkscape:connector-curvature="0"
         id="path69"
         d="m 190.14,825.86 v 1 h 131 v -1 z" />
    </g>
    <rect
       style="opacity:0.52100004;fill:#000000;fill-opacity:0.92814373;stroke-width:6.60807753"
       id="rect73"
       height="1.9999"
       width="131.00006"
       y="822.85999"
       x="190.14005" />
  </g>
  <g
     transform="rotate(180,130.57001,449.93001)"
     id="selected-bottomright"
     style="opacity:1">
    <path
       style="color:#3daee6;opacity:0.15;fill:#ffffff;fill-opacity:1;stroke-width:1"
       d="M 71 70 L 71 73.900391 C 72.964277 73.504511 74.504511 71.964277 74.900391 70 L 71 70 z "
       transform="rotate(-180,130.57001,449.93001)"
       id="path149" />
  </g>
  <g
     transform="matrix(-0.36641221,0,0,-1,139.66964,899.86002)"
     id="selected-bottom"
     style="opacity:1">
    <path
       style="color:#3daee6;opacity:0.15;fill:#ffffff;fill-opacity:1"
       inkscape:connector-curvature="0"
       id="path152"
       d="m 190.14,825.86 v 4 h 131 v -4 z"
       class="ColorScheme-Highlight" />
  </g>
  <g
     transform="rotate(180,171.07,449.93)"
     id="selected-bottomleft"
     style="opacity:1">
    <path
       style="color:#3daee6;opacity:0.15;fill:#ffffff;fill-opacity:1;stroke-width:1"
       d="M 17.099609 70 C 17.495489 71.964277 19.035723 73.504511 21 73.900391 L 21 70 L 17.099609 70 z "
       transform="rotate(-180,171.07,449.93)"
       id="path155" />
  </g>
  <use
     x="0"
     y="0"
     xlink:href="#normal-top"
     id="normal-right"
     transform="rotate(90,128.99997,45.000046)"
     width="100%"
     height="100%"
     style="opacity:0" />
  <use
     x="0"
     y="0"
     xlink:href="#normal-top"
     id="normal-left"
     transform="matrix(0,-1,1.0000114,0,83.999795,173.99993)"
     width="100%"
     height="100%"
     style="opacity:0" />
  <use
     x="0"
     y="0"
     xlink:href="#normal-top"
     id="normal-bottom"
     transform="matrix(1,0,0,-1,9.7013627e-5,89.999994)"
     width="100%"
     height="100%"
     style="opacity:0" />
  <use
     x="0"
     y="0"
     xlink:href="#normal-topleft"
     id="normal-topright"
     transform="matrix(-1,0,0,1,258.00004,-1.2372944e-5)"
     width="100%"
     height="100%"
     style="opacity:0" />
  <use
     x="0"
     y="0"
     xlink:href="#normal-topleft"
     id="normal-bottomleft"
     transform="matrix(1,0,0,-1,2.0013627e-5,90.000004)"
     width="100%"
     height="100%"
     style="opacity:0" />
  <use
     x="0"
     y="0"
     xlink:href="#normal-topleft"
     id="normal-bottomright"
     transform="rotate(-180,129.00001,45.000004)"
     width="100%"
     height="100%"
     style="opacity:0" />
  <path
     style="color:#3daee6;opacity:0.15;fill:#ffffff;stroke-width:0.99999994;fill-opacity:1"
     inkscape:connector-curvature="0"
     d="m 22.000028,91.00005 v 48 h 48 v -48 z"
     class="ColorScheme-Highlight"
     id="hover-center" />
  <g
     transform="matrix(0.99999999,0,0,3,-169.13999,-2398.5798)"
     id="hover-left"
     style="opacity:1">
    <path
       style="color:#3daee6;opacity:0.15;fill:#ffffff;fill-opacity:1"
       inkscape:connector-curvature="0"
       id="path7-8"
       d="m 186.14,829.86 v 16 h 4 v -16 z"
       class="ColorScheme-Highlight" />
  </g>
  <g
     transform="translate(-169.14,-739.86)"
     id="hover-topleft"
     style="opacity:1">
    <path
       style="color:#3daee6;opacity:0.15;fill:#ffffff;fill-opacity:1;stroke-width:1"
       d="M 21 86.099609 C 19.035723 86.495489 17.495489 88.035723 17.099609 90 L 21 90 L 21 86.099609 z "
       id="path10-91"
       transform="translate(169.14,739.86)" />
  </g>
  <g
     transform="matrix(0.3664122,0,0,0.99999999,-47.669596,-739.85996)"
     id="hover-top"
     style="opacity:1">
    <path
       style="color:#3daee6;opacity:0.15;fill:#ffffff;fill-opacity:1"
       inkscape:connector-curvature="0"
       id="path13-26"
       d="m 190.14,825.86 v 4 h 131 v -4 z"
       class="ColorScheme-Highlight" />
  </g>
  <g
     transform="matrix(1.4999981,0,0,1.4999981,-412.70937,-1152.7882)"
     id="hover-topright"
     style="opacity:1">
    <path
       style="color:#3daee6;opacity:0.15;fill:#ffffff;fill-opacity:1;stroke-width:0.99999732"
       d="M 71 86.099609 L 71 90 L 74.900391 90 C 74.504511 88.035723 72.964277 86.495489 71 86.099609 z "
       transform="matrix(0.66666751,0,0,0.66666751,275.13993,768.52644)"
       id="path16-1" />
  </g>
  <g
     transform="matrix(0.99999999,0,0,3,-250.13999,-2398.5798)"
     id="hover-right"
     style="opacity:1">
    <path
       style="color:#3daee6;opacity:0.15;fill:#ffffff;fill-opacity:1"
       inkscape:connector-curvature="0"
       id="path19-7"
       d="m 325.14,829.86 v 16 h -4 v -16 z"
       class="ColorScheme-Highlight" />
  </g>
  <g
     transform="rotate(180,130.57003,484.93006)"
     id="hover-bottomright"
     style="opacity:1">
    <path
       style="color:#3daee6;opacity:0.15;fill:#ffffff;fill-opacity:1;stroke-width:1"
       d="M 71 140 L 71 143.90039 C 72.964277 143.50451 74.504511 141.96428 74.900391 140 L 71 140 z "
       transform="rotate(-180,130.57003,484.93006)"
       id="path149-0" />
  </g>
  <g
     transform="matrix(-0.3664122,0,0,-0.99999999,139.66966,969.86005)"
     id="hover-bottom"
     style="opacity:1">
    <path
       style="color:#3daee6;opacity:0.15;fill:#ffffff;fill-opacity:1"
       inkscape:connector-curvature="0"
       id="path152-84"
       d="m 190.14,825.86 v 4 h 131 v -4 z"
       class="ColorScheme-Highlight" />
  </g>
  <g
     transform="rotate(180,171.07001,484.93004)"
     id="hover-bottomleft"
     style="opacity:1">
    <path
       style="color:#3daee6;opacity:0.15;fill:#ffffff;fill-opacity:1;stroke-width:1"
       d="M 17.099609 140 C 17.495489 141.96428 19.035723 143.50451 21 143.90039 L 21 140 L 17.099609 140 z "
       transform="rotate(-180,171.07001,484.93004)"
       id="path155-7" />
  </g>
  <path
     style="color:#3daee6;opacity:0.15;fill:#ffffff;stroke-width:0.99999994;fill-opacity:1"
     inkscape:connector-curvature="0"
     d="m 105.00001,90.9999 v 48 h 48 v -48 z"
     class="ColorScheme-Highlight"
     id="selected+hover-center" />
  <g
     transform="matrix(0.99999999,0,0,3,-86.139998,-2398.58)"
     id="selected+hover-left"
     style="opacity:1">
    <path
       style="color:#3daee6;opacity:0.15;fill:#ffffff;fill-opacity:1"
       inkscape:connector-curvature="0"
       id="path7-83"
       d="m 186.14,829.86 v 16 h 4 v -16 z"
       class="ColorScheme-Highlight" />
  </g>
  <g
     transform="translate(-86.140008,-739.86015)"
     id="selected+hover-topleft"
     style="opacity:1">
    <path
       style="color:#3daee6;opacity:0.15;fill:#ffffff;fill-opacity:1;stroke-width:1"
       d="M 104 86.099609 C 102.03572 86.495489 100.49549 88.035723 100.09961 90 L 104 90 L 104 86.099609 z "
       transform="translate(86.140008,739.86015)"
       id="path10-0" />
  </g>
  <g
     transform="matrix(0.3664122,0,0,0.99999999,35.330385,-739.86011)"
     id="selected+hover-top"
     style="opacity:1">
    <path
       style="color:#3daee6;opacity:0.15;fill:#ffffff;fill-opacity:1"
       inkscape:connector-curvature="0"
       id="path13-9"
       d="m 190.14,825.86 v 4 h 131 v -4 z"
       class="ColorScheme-Highlight" />
  </g>
  <g
     transform="matrix(1.4999981,0,0,1.4999981,-329.70938,-1152.7884)"
     id="selected+hover-topright"
     style="opacity:1">
    <path
       style="color:#3daee6;opacity:0.15;fill:#ffffff;fill-opacity:1;stroke-width:0.99999732"
       d="M 154 86.099609 L 154 90 L 157.90039 90 C 157.50451 88.035723 155.96428 86.495489 154 86.099609 z "
       transform="matrix(0.66666751,0,0,0.66666751,219.80653,768.52657)"
       id="path16-6" />
  </g>
  <g
     transform="matrix(0.99999999,0,0,3,-167.14,-2398.58)"
     id="selected+hover-right"
     style="opacity:1">
    <path
       style="color:#3daee6;opacity:0.15;fill:#ffffff;fill-opacity:1"
       inkscape:connector-curvature="0"
       id="path19-4"
       d="m 325.14,829.86 v 16 h -4 v -16 z"
       class="ColorScheme-Highlight" />
  </g>
  <g
     transform="rotate(180,172.07002,484.92998)"
     id="selected+hover-bottomright"
     style="opacity:1">
    <path
       style="color:#3daee6;opacity:0.15;fill:#ffffff;fill-opacity:1;stroke-width:1"
       d="M 154 140 L 154 143.90039 C 155.96428 143.50451 157.50451 141.96428 157.90039 140 L 154 140 z "
       transform="rotate(-180,172.07002,484.92998)"
       id="path149-8" />
  </g>
  <g
     transform="matrix(-0.3664122,0,0,-0.99999999,222.66965,969.8599)"
     id="selected+hover-bottom"
     style="opacity:1">
    <path
       style="color:#3daee6;opacity:0.15;fill:#ffffff;fill-opacity:1"
       inkscape:connector-curvature="0"
       id="path152-7"
       d="m 190.14,825.86 v 4 h 131 v -4 z"
       class="ColorScheme-Highlight" />
  </g>
  <g
     transform="rotate(180,212.57,484.92996)"
     id="selected+hover-bottomleft"
     style="opacity:1">
    <path
       style="color:#3daee6;opacity:0.15;fill:#ffffff;fill-opacity:1;stroke-width:1"
       d="M 100.09961 140 C 100.49549 141.96428 102.03572 143.50451 104 143.90039 L 104 140 L 100.09961 140 z "
       transform="rotate(-180,212.57,484.92996)"
       id="path155-1" />
  </g>
</svg>
