<?xml version="1.0" encoding="UTF-8" standalone="no"?>
<svg
   xmlns:dc="http://purl.org/dc/elements/1.1/"
   xmlns:cc="http://creativecommons.org/ns#"
   xmlns:rdf="http://www.w3.org/1999/02/22-rdf-syntax-ns#"
   xmlns:svg="http://www.w3.org/2000/svg"
   xmlns="http://www.w3.org/2000/svg"
   xmlns:sodipodi="http://sodipodi.sourceforge.net/DTD/sodipodi-0.dtd"
   xmlns:inkscape="http://www.inkscape.org/namespaces/inkscape"
   viewBox="0 0 22 22"
   version="1.0"
   height="22"
   width="22"
   id="svg120"
   sodipodi:docname="battery.svg"
   inkscape:version="1.0 (4035a4fb49, 2020-05-01)">
  <sodipodi:namedview
     inkscape:document-rotation="0"
     pagecolor="#00cc3a"
     bordercolor="#666666"
     borderopacity="1"
     objecttolerance="10"
     gridtolerance="10"
     guidetolerance="10"
     inkscape:pageopacity="0"
     inkscape:pageshadow="2"
     inkscape:window-width="1920"
     inkscape:window-height="932"
     id="namedview120"
     showgrid="true"
     inkscape:snap-bbox="true"
     inkscape:bbox-nodes="true"
     inkscape:snap-bbox-edge-midpoints="true"
     inkscape:zoom="1.4142136"
     inkscape:cx="36.734081"
     inkscape:cy="-69.781612"
     inkscape:window-x="0"
     inkscape:window-y="36"
     inkscape:window-maximized="1"
     inkscape:current-layer="svg120"
     inkscape:snap-nodes="true">
    <inkscape:grid
       type="xygrid"
       id="grid975" />
  </sodipodi:namedview>
  <metadata
     id="metadata121">
    <rdf:RDF>
      <cc:Work
         rdf:about="">
        <dc:format>image/svg+xml</dc:format>
        <dc:type
           rdf:resource="http://purl.org/dc/dcmitype/StillImage" />
        <dc:title></dc:title>
      </cc:Work>
    </rdf:RDF>
  </metadata>
  <defs
     id="defs5">
    <style
       type="text/css"
       id="current-color-scheme">.ColorScheme-Text { color:#363636; }</style>
  </defs>
  <g
     transform="translate(-166.54,-471.51)"
     id="Unavailable">
    <path
       fill="none"
       d="m118.54 428.5h32v32h-32z"
       id="rect4480" />
    <g
       id="g4580">
      <rect
         fill="#f44336"
         ry="6"
         rx="6"
         height="12"
         width="12"
         y="446.5"
         x="139.54"
         id="rect4577" />
      <path
         style="fill:#ffffff;fill-opacity:1"
         fill="currentColor"
         d="m148.36 450.38-0.70699-0.707-2.1213 2.1213-2.1213-2.1213-0.70711 0.70711 2.1214 2.1212-2.1214 2.1214 0.70711 0.70711 2.1213-2.1216 2.1213 2.1216 0.70711-0.70711-2.1214-2.1214z"
         class="ColorScheme-Text"
         id="rect4622-0" />
    </g>
  </g>
  <g
     transform="translate(-300.54,-433.51)"
     id="22-22-Unavailable">
    <path
       fill="none"
       d="m258.54 426.5h22v22h-22z"
       id="rect4614" />
    <g
       id="g4631">
      <rect
         fill="#f44336"
         ry="4.5"
         rx="4.5"
         height="9"
         width="9"
         y="439.5"
         x="271.54"
         id="rect4577-9-1" />
      <path
         style="fill:#ffffff;fill-opacity:1"
         fill="currentColor"
         color="#eff0f1"
         d="m277.89 442.77-0.61861-0.61862-1.2375 1.2375-1.2375-1.2375-0.61861 0.61862 1.2375 1.2375-1.2375 1.2373 0.61861 0.61862 1.2375-1.2373 1.2374 1.2374 0.61863-0.61862-1.2374-1.2374z"
         class="ColorScheme-Text"
         id="rect4622" />
    </g>
  </g>
  <g
     id="22-22-Fill90"
     transform="translate(-3.6363602,3)">
    <path
       d="m 72,5 c -1.662,0 -3,1.338 -3,3 0,1.662 1.338,3 3,3 H 82 L 82.970703,5.173828 C 82.664779,5.069199 82.34226,5 82,5 Z"
       style="fill:#ffffff;fill-opacity:1;stroke-width:0.34641;stroke-linecap:round"
       id="rect1253" />
    <rect
       opacity="0"
       height="22"
       width="22"
       y="-3"
       id="rect977"
       x="66" />
  </g>
  <g
     id="22-22-Fill50"
     transform="translate(-2.9090576,3)">
    <path
       d="m 196,5 c -1.662,0 -3,1.338 -3,3 0,1.662 1.338,3 3,3 h 2.9707 l 1,-6 z"
       style="fill:#ffffff;fill-opacity:1;stroke-width:0.34641;stroke-linecap:round"
       id="path1357" />
    <rect
       opacity="0"
       height="22"
       width="22"
       y="-3"
       id="rect1002"
       x="190" />
  </g>
  <rect
     ry="0"
     rx="0"
     y="27.999996"
     x="-132"
     height="22"
     width="22"
     id="rect1491"
     style="opacity:0;fill:#000000;fill-opacity:1;fill-rule:evenodd;stroke:none;stroke-width:0.6875;stroke-linecap:round;stroke-linejoin:round;stroke-miterlimit:4;stroke-dasharray:none;stroke-opacity:1;paint-order:normal" />
  <g
     id="22-22-battery-ups">
    <rect
       opacity="0"
       ry="0"
       rx="0"
       height="22"
       width="22"
       y="-2.3437502e-07"
       x="-127.004"
       id="rect930"
       style="color:#363636;fill:#363636" />
    <g
       transform="translate(5,-27)"
       id="g1871">
      <path
         id="rect1111"
         style="opacity:0.5;fill:#ffffff;fill-opacity:1;stroke:none;stroke-width:2;stroke-linecap:round;stroke-miterlimit:4;stroke-dasharray:none;stroke-opacity:1"
         d="m -126.5,34 c -3.047,0 -5.5,2.453 -5.5,5.5 0,3.047 2.453,5.5 5.5,5.5 h 2.51172 l 0.43945,-1 H -126.5 c -2.493,0 -4.5,-2.007 -4.5,-4.5 0,-2.493 2.007,-4.5 4.5,-4.5 h 4.6582 l 0.92188,-1 z m 8.51367,0 -0.44531,1 H -115.5 c 2.493,0 4.5,2.007 4.5,4.5 0,2.493 -2.007,4.5 -4.5,4.5 h -4.63672 l -0.91992,1 H -115.5 c 3.047,0 5.5,-2.453 5.5,-5.5 0,-3.047 -2.453,-5.5 -5.5,-5.5 z" />
      <path
         sodipodi:nodetypes="sssccccsccccsssc"
         id="rect1118"
         style="fill:#ffffff;fill-opacity:1;stroke:none;stroke-width:2;stroke-linecap:round;stroke-miterlimit:4;stroke-dasharray:none;stroke-opacity:1"
         d="m -126.5,36 c -1.939,0 -3.5,1.561 -3.5,3.5 0,1.939 1.561,3.5 3.5,3.5 h 3.39062 l 0.57813,-1.3125 h -5.47852 L -122.76367,36 Z m 7.625,0 -0.58789,1.324219 h 5.4707 L -119.2168,43 h 3.7168 c 1.939,0 3.5,-1.561 3.5,-3.5 0,-1.939 -1.561,-3.5 -3.5,-3.5 z" />
      <path
         style="opacity:0.5;fill:#ffffff;fill-opacity:1;stroke:none;stroke-width:1.18182px;stroke-linecap:butt;stroke-linejoin:miter;stroke-opacity:1"
         d="m -118.63636,33 -7.09091,7.68877 H -121 l -2.33604,5.31121 7.06331,-7.67485 H -121 Z"
         id="path1120"
         inkscape:connector-curvature="0"
         sodipodi:nodetypes="ccccccc" />
    </g>
  </g>
  <rect
     ry="0"
     rx="0"
     y="-74.285126"
     x="-143.11719"
     height="32"
     width="32"
     id="rect1011-7"
     style="opacity:0;fill:#dedede;fill-opacity:1;fill-rule:evenodd;stroke:none;stroke-width:1;stroke-linecap:round;stroke-linejoin:round;stroke-miterlimit:4;stroke-dasharray:none;stroke-opacity:1;paint-order:normal" />
  <g
     id="22-22-Battery">
    <rect
       fill="none"
       height="22"
       width="22"
       id="rect972"
       x="0"
       y="0" />
    <path
       d="m 6,5 c -3.324,0 -6,2.676 -6,6 0,3.324 2.676,6 6,6 h 10 c 3.324,0 6,-2.676 6,-6 0,-3.324 -2.676,-6 -6,-6 z m 0,2 h 10 c 2.216,0 4,1.784 4,4 0,2.216 -1.784,4 -4,4 H 6 C 3.784,15 2,13.216 2,11 2,8.784 3.784,7 6,7 Z"
       style="fill:#ffffff;fill-opacity:1;stroke-width:0.313339;stroke-linecap:round"
       id="rect1061" />
  </g>
  <g
     id="22-22-Fill100"
     transform="translate(-7.8181801,3)">
    <rect
       opacity="0"
       height="22"
       width="22"
       y="-3"
       id="rect971"
       x="39" />
    <rect
       ry="3"
       y="5"
       x="42"
       height="6"
       width="16"
       id="rect1154"
       style="fill:#ffffff;fill-opacity:1;stroke-width:0.34641;stroke-linecap:round" />
  </g>
  <g
     id="22-22-Fill80"
     transform="translate(-1.4545364,3)">
    <rect
       opacity="0"
       height="22"
       width="22"
       y="-3"
       id="rect983"
       x="95" />
    <path
       d="m 101.01465,5 c -1.662,0 -3,1.338 -3,3 0,1.662 1.338001,3 3,3 h 7.9707 l 1,-6 z"
       style="fill:#ffffff;fill-opacity:1;stroke-width:0.34641;stroke-linecap:round"
       id="path1284" />
  </g>
  <g
     id="22-22-Fill70"
     transform="translate(1.7272873,3)">
    <rect
       opacity="0"
       height="22"
       width="22"
       y="-3"
       id="rect989"
       x="123" />
    <path
       d="m 129.01465,5 c -1.662,0 -3,1.338 -3,3 0,1.662 1.338,3 3,3 h 5.9707 l 1,-6 z"
       style="fill:#ffffff;fill-opacity:1;stroke-width:0.34641;stroke-linecap:round"
       id="path1298" />
  </g>
  <g
     id="22-22-Fill60"
     transform="translate(0.90911865,3)">
    <rect
       opacity="0"
       height="22"
       width="22"
       y="-3"
       id="rect995"
       x="155" />
    <path
       d="m 161.01465,5 c -1.662,0 -3,1.338 -3,3 0,1.662 1.338,3 3,3 h 3.9707 l 1,-6 z"
       style="fill:#ffffff;fill-opacity:1;stroke-width:0.34641;stroke-linecap:round"
       id="path1350" />
  </g>
  <g
     id="22-22-Fill40"
     transform="translate(-0.72723389,3)">
    <rect
       opacity="0"
       height="22"
       width="22"
       y="-3"
       id="rect1008"
       x="219" />
    <path
       d="m 225.0293,5 c -1.662,0 -3,1.338 -3,3 0,1.662 1.338,3 3,3 H 227 l 1,-6 z"
       style="fill:#ffffff;fill-opacity:1;stroke-width:0.34641;stroke-linecap:round"
       id="path1362" />
  </g>
  <g
     id="22-22-Fill30"
     transform="translate(0.45458984,3)">
    <rect
       opacity="0"
       height="22"
       width="22"
       y="-3"
       id="rect1015"
       x="249" />
    <path
       d="m 255,5 c -1.662,0 -3,1.338 -3,3 0,1.662 1.338,3 3,3 h 0.9707 l 1,-6 z"
       style="fill:#ffffff;fill-opacity:1;stroke-width:0.34641;stroke-linecap:round"
       id="path1369" />
  </g>
  <g
     id="22-22-Fill20"
     transform="translate(1.6364136,3)">
    <rect
       opacity="0"
       height="22"
       width="22"
       y="-3"
       id="rect1021"
       x="279" />
    <path
       d="m 285.0293,5.0009765 c -1.662,0 -3,1.338 -3,3 0,1.651981 1.32264,2.9820495 2.9707,2.9980475 l 1,-5.9980475 z"
       style="fill:#ffffff;fill-opacity:1;stroke-width:0.34641;stroke-linecap:round"
       id="path1378" />
  </g>
  <g
     id="22-22-Fill10"
     transform="translate(4.8182373,3)">
    <rect
       fill="none"
       height="22"
       width="22"
       y="-3"
       x="307"
       id="rect952" />
    <path
       d="m 313,5.003906 c -1.64797,0.0161 -2.9707,1.34418 -2.9707,2.996094 0,1.309777 0.8361,2.405838 2.00195,2.816406 z"
       style="fill:#ff4d62;fill-opacity:1;stroke-width:0.34641;stroke-linecap:round"
       id="path1385" />
    <path
       id="path1396"
       style="fill:#ff4d62;fill-opacity:1;stroke-width:0.313339;stroke-linecap:round"
       d="m 313,2 c -3.324,0 -6,2.676 -6,6 0,3.324 2.676,6 6,6 h 10 c 3.324,0 6,-2.676 6,-6 0,-3.324 -2.676,-6 -6,-6 z m 0,2 h 10 c 2.216,0 4,1.784 4,4 0,2.216 -1.784,4 -4,4 h -10 c -2.216,0 -4,-1.784 -4,-4 0,-2.216 1.784,-4 4,-4 z" />
  </g>
  <g
     id="22-22-Fill0"
     transform="translate(6.1035156e-5,3)">
    <rect
       fill="none"
       height="22"
       width="22"
       y="-3"
       x="343"
       id="rect973" />
    <path
       d="m 349,2 c -3.324,0 -6,2.676 -6,6 0,3.324 2.676,6 6,6 h 10 c 3.324,0 6,-2.676 6,-6 0,-3.324 -2.676,-6 -6,-6 z m 0,2 h 10 c 2.216,0 4,1.784 4,4 0,2.216 -1.784,4 -4,4 h -10 c -2.216,0 -4,-1.784 -4,-4 0,-2.216 1.784,-4 4,-4 z"
       style="fill:#ff4d62;fill-opacity:1;stroke-width:0.313339;stroke-linecap:round"
       id="path1402" />
  </g>
  <g
     id="Battery">
    <rect
       fill="none"
       height="32"
       width="32"
       y="-44"
       x="-4.0136719"
       id="rect997" />
    <g
       transform="translate(0,44)"
       id="g1483">
      <path
         id="rect1468"
         style="opacity:1;fill:#ffffff;fill-opacity:1;stroke:none;stroke-width:0.968246;stroke-linecap:round;stroke-miterlimit:4;stroke-dasharray:none;stroke-opacity:1"
         d="m 5.5,-80 c -4.155,0 -7.5,3.345 -7.5,7.5 0,4.155 3.345,7.5 7.5,7.5 h 14 c 4.155,0 7.5,-3.345 7.5,-7.5 0,-4.155 -3.345,-7.5 -7.5,-7.5 z m 0,2 h 14 c 3.047,0 5.5,2.453 5.5,5.5 0,3.047 -2.453,5.5 -5.5,5.5 H 5.5 C 2.453,-67 0,-69.453 0,-72.5 0,-75.547 2.453,-78 5.5,-78 Z" />
      <rect
         style="opacity:1;fill:#ffffff;fill-opacity:1;stroke:none;stroke-width:1.18666;stroke-linecap:round;stroke-miterlimit:4;stroke-dasharray:none;stroke-opacity:1"
         id="rect1475"
         width="23"
         height="9"
         x="1"
         y="-77"
         ry="4.5" />
    </g>
  </g>
  <g
     id="Fill100">
    <rect
       opacity="0"
       ry="0"
       rx="0"
       height="32"
       width="32"
       y="-43"
       x="35"
       id="rect1022"
       style="color:#363636;fill:#363636" />
    <rect
       ry="4.5"
       y="-32"
       x="40"
       height="9"
       width="23"
       id="rect1495"
       style="fill:#ffffff;fill-opacity:1;stroke:none;stroke-width:1.18666;stroke-linecap:round;stroke-miterlimit:4;stroke-dasharray:none;stroke-opacity:1" />
  </g>
  <g
     id="Fill90">
    <rect
       opacity="0"
       ry="0"
       rx="0"
       height="32"
       width="32"
       y="-43"
       x="75"
       id="rect1042"
       style="color:#363636;fill:#363636" />
    <path
       d="m 84.5,-32 c -2.493,0 -4.5,2.007 -4.5,4.5 0,2.493 2.007,4.5 4.5,4.5 h 14 c 0.541262,0 1.051372,-0.111511 1.53125,-0.285156 l 0.88867,-8.001953 C 100.22083,-31.733599 99.394482,-32 98.5,-32 Z"
       style="fill:#ffffff;fill-opacity:1;stroke:none;stroke-width:1.18666;stroke-linecap:round;stroke-miterlimit:4;stroke-dasharray:none;stroke-opacity:1"
       id="rect1497" />
  </g>
  <g
     id="Fill80">
    <rect
       opacity="0"
       ry="0"
       rx="0"
       height="32"
       width="32"
       y="-43"
       x="110"
       id="rect1048"
       style="color:#363636;fill:#363636" />
    <path
       d="m 119.5,-31.999999 c -2.493,0 -4.5,2.007 -4.5,4.5 0,2.493 2.007,4.5 4.5,4.5 H 133 l 0.99609,-8.962891 C 133.83231,-31.98134 133.66905,-32 133.5,-32 Z"
       style="fill:#ffffff;fill-opacity:1;stroke:none;stroke-width:1.18666;stroke-linecap:round;stroke-miterlimit:4;stroke-dasharray:none;stroke-opacity:1"
       id="path1505" />
  </g>
  <g
     id="Fill70">
    <rect
       opacity="0"
       ry="0"
       rx="0"
       height="32"
       width="32"
       y="-43"
       x="149"
       id="rect1054"
       style="color:#363636;fill:#363636" />
    <path
       d="m 158.5,-32 c -2.49299,0 -4.5,2.007 -4.5,4.5 0,2.493 2.00701,4.5 4.5,4.5 h 11.49609 l 1,-9 z"
       style="fill:#ffffff;fill-opacity:1;stroke:none;stroke-width:1.18666;stroke-linecap:round;stroke-miterlimit:4;stroke-dasharray:none;stroke-opacity:1"
       id="path1512" />
  </g>
  <g
     id="Fill60">
    <rect
       opacity="0"
       ry="0"
       rx="0"
       height="32"
       width="32"
       y="-43"
       x="185.01001"
       id="rect1060"
       style="color:#363636;fill:#363636" />
    <path
       d="m 194.5,-32 c -2.49298,0 -4.5,2.007 -4.5,4.5 0,2.493 2.00702,4.5 4.5,4.5 h 9.49609 l 1,-9 z"
       style="opacity:1;fill:#ffffff;fill-opacity:1;stroke:none;stroke-width:1.18666;stroke-linecap:round;stroke-miterlimit:4;stroke-dasharray:none;stroke-opacity:1"
       id="path1519" />
  </g>
  <g
     id="Fill50">
    <rect
       opacity="0"
       ry="0"
       rx="0"
       height="32"
       width="32"
       y="-43"
       x="220"
       id="rect1066"
       style="color:#363636;fill:#363636" />
    <path
       d="m 229.5,-32 c -2.49297,0 -4.5,2.007 -4.5,4.5 0,2.493 2.00703,4.5 4.5,4.5 h 7.5 l 1,-9 z"
       style="opacity:1;fill:#ffffff;fill-opacity:1;stroke:none;stroke-width:1.18666;stroke-linecap:round;stroke-miterlimit:4;stroke-dasharray:none;stroke-opacity:1"
       id="path1526" />
  </g>
  <g
     id="Fill40">
    <rect
       opacity="0"
       ry="0"
       rx="0"
       height="32"
       width="32"
       y="-43"
       x="260"
       id="rect1072"
       style="color:#363636;fill:#363636" />
    <path
       d="m 269.5,-32 c -2.49297,0 -4.5,2.007 -4.5,4.5 0,2.493 2.00703,4.5 4.5,4.5 h 5.5 l 1,-9 z"
       style="opacity:1;fill:#ffffff;fill-opacity:1;stroke:none;stroke-width:1.18666;stroke-linecap:round;stroke-miterlimit:4;stroke-dasharray:none;stroke-opacity:1"
       id="path1533" />
  </g>
  <g
     id="Fill30">
    <rect
       opacity="0"
       ry="0"
       rx="0"
       height="32"
       width="32"
       y="-43"
       x="295"
       id="rect1078"
       style="color:#363636;fill:#363636" />
    <path
       d="m 304.5,-32 c -2.49297,0 -4.5,2.007 -4.5,4.5 0,2.493 2.00703,4.5 4.5,4.5 h 3.5 l 1,-9 z"
       style="opacity:1;fill:#ffffff;fill-opacity:1;stroke:none;stroke-width:1.18666;stroke-linecap:round;stroke-miterlimit:4;stroke-dasharray:none;stroke-opacity:1"
       id="path1540" />
  </g>
  <g
     id="Fill20">
    <rect
       opacity="0"
       ry="0"
       rx="0"
       height="32"
       width="32"
       y="-43"
       x="327"
       id="rect1084"
       style="color:#363636;fill:#363636" />
    <path
       d="m 336.5,-32 c -2.49297,0 -4.5,2.007 -4.5,4.5 0,2.493 2.00703,4.5 4.5,4.5 h 1.5 l 1,-9 z"
       style="opacity:1;fill:#ffffff;fill-opacity:1;stroke:none;stroke-width:1.18666;stroke-linecap:round;stroke-miterlimit:4;stroke-dasharray:none;stroke-opacity:1"
       id="path1547" />
  </g>
  <g
     id="Fill10">
    <rect
       fill="none"
       height="32"
       width="32"
       y="-44"
       x="357"
       id="rect1077" />
    <g
       transform="translate(0,15.474609)"
       id="g1679">
      <path
         id="path1554"
         style="opacity:1;fill:#ff4d62;fill-opacity:1;stroke:none;stroke-width:1.18666;stroke-linecap:round;stroke-miterlimit:4;stroke-dasharray:none;stroke-opacity:1"
         d="m 366.5,-48.474609 c -2.49297,0 -4.5,2.006999 -4.5,4.5 0,2.32342 1.75064,4.201309 4.00586,4.449219 L 367,-48.474609 Z" />
      <path
         id="path1668"
         style="opacity:1;fill:#ff4d62;fill-opacity:1;stroke:none;stroke-width:0.968246;stroke-linecap:round;stroke-miterlimit:4;stroke-dasharray:none;stroke-opacity:1"
         d="m 366.5,-51.474609 c -4.155,0 -7.5,3.345 -7.5,7.5 0,4.155 3.345,7.5 7.5,7.5 h 14 c 4.155,0 7.5,-3.345 7.5,-7.5 0,-4.155 -3.345,-7.5 -7.5,-7.5 z m 0,2 h 14 c 3.047,0 5.5,2.453 5.5,5.5 0,3.046999 -2.453,5.5 -5.5,5.5 h -14 c -3.047,0 -5.5,-2.453001 -5.5,-5.5 0,-3.047 2.453,-5.5 5.5,-5.5 z" />
    </g>
  </g>
  <g
     id="Fill0">
    <rect
       fill="none"
       height="32"
       width="32"
       y="-44"
       x="399"
       id="rect1089" />
    <path
       id="path1670"
       style="opacity:1;fill:#ff4d62;fill-opacity:1;stroke:none;stroke-width:0.968246;stroke-linecap:round;stroke-miterlimit:4;stroke-dasharray:none;stroke-opacity:1"
       d="m 408.5,-36 c -4.155,0 -7.5,3.345 -7.5,7.5 0,4.155 3.345,7.5 7.5,7.5 h 14 c 4.155,0 7.5,-3.345 7.5,-7.5 0,-4.155 -3.345,-7.5 -7.5,-7.5 z m 0,2 h 14 c 3.047,0 5.5,2.453 5.5,5.5 0,3.046999 -2.453,5.5 -5.5,5.5 h -14 c -3.047,0 -5.5,-2.453001 -5.5,-5.5 0,-3.047 2.453,-5.5 5.5,-5.5 z" />
  </g>
  <g
     id="AcAdapter">
    <g
       transform="translate(-297.54,-356.51)"
       id="g1133">
      <rect
         opacity="0"
         ry="0"
         rx="0"
         height="32"
         width="32"
         y="314.51001"
         x="211.53999"
         id="rect1129" />
    </g>
    <path
       id="path1705"
       d="m -67.42856,-34.5 -9.71429,9.71429 h 6.07143 L -74.71429,-17.5 -65,-27.21429 h -6.0714 z"
       style="color:#000000;font-style:normal;font-variant:normal;font-weight:normal;font-stretch:normal;font-size:medium;line-height:normal;font-family:sans-serif;font-variant-ligatures:normal;font-variant-position:normal;font-variant-caps:normal;font-variant-numeric:normal;font-variant-alternates:normal;font-variant-east-asian:normal;font-feature-settings:normal;font-variation-settings:normal;text-indent:0;text-align:start;text-decoration:none;text-decoration-line:none;text-decoration-style:solid;text-decoration-color:#000000;letter-spacing:normal;word-spacing:normal;text-transform:none;writing-mode:lr-tb;direction:ltr;text-orientation:mixed;dominant-baseline:auto;baseline-shift:baseline;text-anchor:start;white-space:normal;shape-padding:0;shape-margin:0;inline-size:0;clip-rule:nonzero;display:inline;overflow:visible;visibility:visible;isolation:auto;mix-blend-mode:normal;color-interpolation:sRGB;color-interpolation-filters:linearRGB;solid-color:#000000;solid-opacity:1;vector-effect:none;fill:#3278ff;fill-opacity:1;fill-rule:nonzero;stroke:none;stroke-width:2;stroke-linecap:butt;stroke-linejoin:miter;stroke-miterlimit:4;stroke-dasharray:none;stroke-dashoffset:0;stroke-opacity:1;color-rendering:auto;image-rendering:auto;shape-rendering:auto;text-rendering:auto;enable-background:accumulate;stop-color:#000000" />
  </g>
  <g
     id="22-22-AcAdapter">
    <g
       transform="translate(-295.54,-436.51)"
       id="g1153">
      <g
         transform="translate(50,8)"
         id="g1149">
        <rect
           opacity="0"
           ry="0"
           rx="0"
           height="22"
           width="22"
           y="428.51001"
           x="164.53999"
           id="rect1147" />
      </g>
    </g>
    <path
       style="fill:#3278ff;fill-opacity:1;stroke:none;stroke-width:1.18182px;stroke-linecap:butt;stroke-linejoin:miter;stroke-opacity:1"
       d="m -68.36363,5.00002 -7.09091,7.68877 h 4.72727 L -73.06331,18 -66,10.32515 h -4.72727 z"
       id="path1719"
       inkscape:connector-curvature="0"
       sodipodi:nodetypes="ccccccc" />
  </g>
  <g
     id="battery-ups">
    <rect
       opacity="0"
       ry="0"
       rx="0"
       height="32"
       width="32"
       y="-38.999989"
       x="-137.004"
       id="rect1110"
       style="color:#363636;fill:#363636" />
    <g
       transform="translate(-27,34)"
       id="g1774">
      <path
         id="path1477"
         style="opacity:0.5;fill:#ffffff;fill-opacity:1;stroke:none;stroke-width:0.968246;stroke-linecap:round;stroke-miterlimit:4;stroke-dasharray:none;stroke-opacity:1"
         d="m -100.5,-65 c -4.155,0 -7.5,3.345 -7.5,7.5 0,4.155 3.345,7.5 7.5,7.5 h 2.597656 l 1,-2 H -100.5 c -3.047,0 -5.5,-2.453 -5.5,-5.5 0,-3.047 2.453,-5.5 5.5,-5.5 h 5.943359 l 2,-2 z m 11.117188,0 -1,2 H -86.5 c 3.047,0 5.5,2.453 5.5,5.5 0,3.047 -2.453,5.5 -5.5,5.5 h -6.513672 l -2,2 H -86.5 c 4.155,0 7.5,-3.345 7.5,-7.5 0,-4.155 -3.345,-7.5 -7.5,-7.5 z" />
      <path
         sodipodi:nodetypes="sssccccsccccsssc"
         id="rect1479"
         style="opacity:1;fill:#ffffff;fill-opacity:1;stroke:none;stroke-width:1.18666;stroke-linecap:round;stroke-miterlimit:4;stroke-dasharray:none;stroke-opacity:1"
         d="m -100.5,-62 c -2.493,0 -4.5,2.007 -4.5,4.5 0,2.493 2.007,4.5 4.5,4.5 h 4.097656 l 1.285156,-2.570312 h -6.869142 L -95.556641,-62 Z m 9.617188,0 -1,2 h 6.86914 l -7,7 H -86.5 c 2.493,0 4.5,-2.007 4.5,-4.5 0,-2.493 -2.007,-4.5 -4.5,-4.5 z" />
      <path
         id="path1181"
         d="m -89.857135,-66.28512 -9.71429,9.71429 h 6.07143 l -3.64287,7.28571 9.71429,-9.71429 h -6.0714 z"
         style="color:#000000;font-style:normal;font-variant:normal;font-weight:normal;font-stretch:normal;font-size:medium;line-height:normal;font-family:sans-serif;font-variant-ligatures:normal;font-variant-position:normal;font-variant-caps:normal;font-variant-numeric:normal;font-variant-alternates:normal;font-variant-east-asian:normal;font-feature-settings:normal;font-variation-settings:normal;text-indent:0;text-align:start;text-decoration:none;text-decoration-line:none;text-decoration-style:solid;text-decoration-color:#000000;letter-spacing:normal;word-spacing:normal;text-transform:none;writing-mode:lr-tb;direction:ltr;text-orientation:mixed;dominant-baseline:auto;baseline-shift:baseline;text-anchor:start;white-space:normal;shape-padding:0;shape-margin:0;inline-size:0;clip-rule:nonzero;display:inline;overflow:visible;visibility:visible;isolation:auto;mix-blend-mode:normal;color-interpolation:sRGB;color-interpolation-filters:linearRGB;solid-color:#000000;solid-opacity:1;vector-effect:none;fill:#ffffff;fill-opacity:1;fill-rule:nonzero;stroke:none;stroke-width:2;stroke-linecap:butt;stroke-linejoin:miter;stroke-miterlimit:4;stroke-dasharray:none;stroke-dashoffset:0;stroke-opacity:1;color-rendering:auto;image-rendering:auto;shape-rendering:auto;text-rendering:auto;enable-background:accumulate;stop-color:#000000;opacity:0.5" />
    </g>
  </g>
</svg>
