<?xml version="1.0" encoding="UTF-8" standalone="no"?>
<svg
   xmlns:dc="http://purl.org/dc/elements/1.1/"
   xmlns:cc="http://creativecommons.org/ns#"
   xmlns:rdf="http://www.w3.org/1999/02/22-rdf-syntax-ns#"
   xmlns:svg="http://www.w3.org/2000/svg"
   xmlns="http://www.w3.org/2000/svg"
   xmlns:sodipodi="http://sodipodi.sourceforge.net/DTD/sodipodi-0.dtd"
   xmlns:inkscape="http://www.inkscape.org/namespaces/inkscape"
   inkscape:version="1.0 (4035a4fb49, 2020-05-01)"
   sodipodi:docname="disk.svg"
   width="22"
   height="22"
   version="1.1"
   viewBox="0 0 22 22"
   id="svg86">
  <sodipodi:namedview
     inkscape:bbox-nodes="true"
     inkscape:snap-bbox="true"
     inkscape:current-layer="svg86"
     inkscape:window-maximized="1"
     inkscape:window-y="65"
     inkscape:window-x="0"
     inkscape:cy="-44.819417"
     inkscape:cx="-51.312446"
     inkscape:zoom="2.1676136"
     showgrid="true"
     id="namedview48"
     inkscape:window-height="903"
     inkscape:window-width="1920"
     inkscape:pageshadow="2"
     inkscape:pageopacity="0"
     guidetolerance="10"
     gridtolerance="10"
     objecttolerance="10"
     borderopacity="1"
     bordercolor="#666666"
     pagecolor="#00bd31"
     inkscape:document-rotation="0">
    <inkscape:grid
       id="grid889"
       type="xygrid" />
  </sodipodi:namedview>
  <metadata
     id="metadata88">
    <rdf:RDF>
      <cc:Work
         rdf:about="">
        <dc:format>image/svg+xml</dc:format>
        <dc:type
           rdf:resource="http://purl.org/dc/dcmitype/StillImage" />
        <dc:title />
      </cc:Work>
    </rdf:RDF>
  </metadata>
  <defs
     id="defs5">
    <style
       id="current-color-scheme"
       type="text/css">.ColorScheme-Text {
        color:#363636;
      }
      .ColorScheme-Background {
        color:#efefef;
      }
      .ColorScheme-Highlight {
        color:#3498db;
      }
      .ColorScheme-ViewText {
        color:#363636;
      }
      .ColorScheme-ViewBackground {
        color:#fcfcfc;
      }
      .ColorScheme-ViewHover {
        color:#93cee9;
      }
      .ColorScheme-ViewFocus{
        color:#3daee9;
      }
      .ColorScheme-ButtonText {
        color:#363636;
      }
      .ColorScheme-ButtonBackground {
        color:#efefef;
      }
      .ColorScheme-ButtonHover {
        color:#93cee9;
      }
      .ColorScheme-ButtonFocus{
        color:#3daee9;
      }
      .ColorScheme-NegativeText{
        color:#e74c3c;
      }</style>
  </defs>
  <g
     id="disk-quota"
     transform="translate(-326,-534.36218)">
    <rect
       style="clip-rule:evenodd;fill:#ffffff;fill-opacity:0;fill-rule:evenodd;stroke-width:0.546348;stroke-linejoin:round;stroke-miterlimit:1.41421"
       id="rect817-1-6"
       width="22"
       height="22"
       x="326"
       y="534.36218" />
    <g
       transform="translate(-26,-28.99996)"
       id="g950">
      <path
         inkscape:connector-curvature="0"
         d="m 359.5,566.86216 c -1.108,0 -1.8626,0.90056 -2,2 l -1,8 v 4 c 0,1.108 0.892,2 2,2 h 10 c 1.108,0 2,-0.892 2,-2 v -4 l -1,-8 c -0.13743,-1.0994 -0.892,-2 -2,-2 z m 0,1 h 8 c 0.554,0 0.93128,0.45028 1,1 l 1,8 v 4 c 0,0.554 -0.446,1 -1,1 h -10 c -0.554,0 -1,-0.446 -1,-1 v -4 l 1,-8 c 0.0687,-0.54972 0.446,-1 1,-1 z"
         style="fill:#ffffff;fill-opacity:1;fill-rule:evenodd;stroke:#ffffff;stroke-opacity:1;paint-order:fill markers stroke"
         id="path922" />
      <path
         inkscape:connector-curvature="0"
         d="m 357.4999,575.86216 -0.1355,1 c -0.0744,0.54898 0.45608,1 1.0226,1 h 10.226 c 0.56651,0 1.097,-0.45102 1.0226,-1 l -0.13549,-1 c 0,0.554 -0.32058,1 -0.88709,1 h -10.226 c -0.56651,0 -0.88709,-0.446 -0.88709,-1 z"
         style="fill:#ffffff;fill-opacity:1;fill-rule:evenodd;stroke:#ffffff;stroke-opacity:1;paint-order:fill markers stroke"
         id="path924" />
      <rect
         x="366"
         y="579.36218"
         width="2"
         height="1"
         style="fill:#ffffff;fill-opacity:1;fill-rule:evenodd;stroke-width:1.41421;paint-order:fill markers stroke"
         id="rect926" />
    </g>
    <g
       id="g922"
       transform="translate(-0.5,-25.99998)">
      <path
         style="opacity:0.3;fill:#ffffff;fill-opacity:1;stroke-width:0.6"
         id="path906"
         d="m 338,566.3622 a 3,3 0 0 0 -3,3 3,3 0 0 0 3,3 3,3 0 0 0 3,-3 h -3 z"
         inkscape:connector-curvature="0" />
      <circle
         id="circle908"
         cx="338"
         cy="569.36218"
         r="0.99999565"
         style="fill:#ffffff;fill-opacity:1;stroke-width:0.499998" />
    </g>
  </g>
  <g
     id="disk-quota-missing">
    <rect
       style="color:#363636;fill:#363636"
       id="rect24"
       stroke-width="1.76"
       opacity="0"
       height="22"
       width="22"
       y="0"
       x="24" />
    <g
       id="g1086"
       transform="translate(-1.0039883,21.999997)">
      <path
         style="fill:#e74c3c;fill-opacity:1;stroke:none"
         d="m 44.00003,-11 c -0.55228,0 -1,0.44772 -1,1 0,0.55228 0.44772,4 1,4 0.55228,0 1,-3.44772 1,-4 0,-0.55228 -0.44772,-1 -1,-1 z m 0,6 a 1,1 0 0 0 -1,1 1,1 0 0 0 1,1 1,1 0 0 0 1,-1 1,1 0 0 0 -1,-1 z"
         id="path4247"
         inkscape:connector-curvature="0" />
      <g
         transform="translate(-1)"
         id="g1065">
        <g
           id="g895"
           transform="translate(-328,-585.36218)">
          <path
             id="path889"
             style="fill:#ffffff;fill-opacity:1;fill-rule:evenodd;stroke:#ffffff;stroke-opacity:1;paint-order:fill markers stroke"
             d="m 359.5,566.86216 c -1.108,0 -1.8626,0.90056 -2,2 l -1,8 v 4 c 0,1.108 0.892,2 2,2 h 10 c 1.108,0 2,-0.892 2,-2 v -4 l -1,-8 c -0.13743,-1.0994 -0.892,-2 -2,-2 z m 0,1 h 8 c 0.554,0 0.93128,0.45028 1,1 l 1,8 v 4 c 0,0.554 -0.446,1 -1,1 h -10 c -0.554,0 -1,-0.446 -1,-1 v -4 l 1,-8 c 0.0687,-0.54972 0.446,-1 1,-1 z"
             inkscape:connector-curvature="0" />
          <path
             id="path891"
             style="fill:#ffffff;fill-opacity:1;fill-rule:evenodd;stroke:#ffffff;stroke-opacity:1;paint-order:fill markers stroke"
             d="m 357.4999,575.86216 -0.1355,1 c -0.0744,0.54898 0.45608,1 1.0226,1 h 10.226 c 0.56651,0 1.097,-0.45102 1.0226,-1 l -0.13549,-1 c 0,0.554 -0.32058,1 -0.88709,1 h -10.226 c -0.56651,0 -0.88709,-0.446 -0.88709,-1 z"
             inkscape:connector-curvature="0" />
          <rect
             id="rect893"
             style="fill:#ffffff;fill-opacity:1;fill-rule:evenodd;stroke-width:1.41421;paint-order:fill markers stroke"
             height="1"
             width="2"
             y="579.36218"
             x="366" />
        </g>
        <g
           transform="translate(-302.5,-582.3622)"
           id="g901">
          <path
             inkscape:connector-curvature="0"
             d="m 338,566.3622 a 3,3 0 0 0 -3,3 3,3 0 0 0 3,3 3,3 0 0 0 3,-3 h -3 z"
             id="path897"
             style="opacity:0.3;fill:#ffffff;fill-opacity:1;stroke-width:0.6" />
          <circle
             style="fill:#ffffff;fill-opacity:1;stroke-width:0.499998"
             r="0.99999565"
             cy="569.36218"
             cx="338"
             id="circle899" />
        </g>
      </g>
    </g>
  </g>
  <g
     transform="translate(-278,-534.36218)"
     id="disk-quota-low">
    <rect
       y="534.36218"
       x="326"
       height="22"
       width="22"
       id="rect1108"
       style="clip-rule:evenodd;fill:#ffffff;fill-opacity:0;fill-rule:evenodd;stroke-width:0.546348;stroke-linejoin:round;stroke-miterlimit:1.41421" />
    <g
       id="g1116"
       transform="translate(-26,-28.99996)">
      <path
         id="path1110"
         style="fill:#ffffff;fill-opacity:1;fill-rule:evenodd;stroke:#ffffff;stroke-opacity:1;paint-order:fill markers stroke"
         d="m 359.5,566.86216 c -1.108,0 -1.8626,0.90056 -2,2 l -1,8 v 4 c 0,1.108 0.892,2 2,2 h 10 c 1.108,0 2,-0.892 2,-2 v -4 l -1,-8 c -0.13743,-1.0994 -0.892,-2 -2,-2 z m 0,1 h 8 c 0.554,0 0.93128,0.45028 1,1 l 1,8 v 4 c 0,0.554 -0.446,1 -1,1 h -10 c -0.554,0 -1,-0.446 -1,-1 v -4 l 1,-8 c 0.0687,-0.54972 0.446,-1 1,-1 z"
         inkscape:connector-curvature="0" />
      <path
         id="path1112"
         style="fill:#ffffff;fill-opacity:1;fill-rule:evenodd;stroke:#ffffff;stroke-opacity:1;paint-order:fill markers stroke"
         d="m 357.4999,575.86216 -0.1355,1 c -0.0744,0.54898 0.45608,1 1.0226,1 h 10.226 c 0.56651,0 1.097,-0.45102 1.0226,-1 l -0.13549,-1 c 0,0.554 -0.32058,1 -0.88709,1 h -10.226 c -0.56651,0 -0.88709,-0.446 -0.88709,-1 z"
         inkscape:connector-curvature="0" />
      <rect
         id="rect1114"
         style="fill:#ffffff;fill-opacity:1;fill-rule:evenodd;stroke-width:1.41421;paint-order:fill markers stroke"
         height="1"
         width="2"
         y="579.36218"
         x="366" />
    </g>
    <g
       transform="translate(-0.5,-25.99998)"
       id="g1122">
      <path
         inkscape:connector-curvature="0"
         d="m 338,566.3622 a 3,3 0 0 0 -3,3 3,3 0 0 0 3,3 3,3 0 0 0 3,-3 h -3 z"
         id="path1118"
         style="opacity:0.3;fill:#fdbc4b;fill-opacity:1;stroke-width:0.6" />
      <circle
         style="fill:#fdbc4b;fill-opacity:1;stroke-width:0.499998"
         r="0.99999565"
         cy="569.36218"
         cx="338"
         id="circle1120" />
    </g>
  </g>
  <g
     id="disk-quota-high"
     transform="translate(-254,-534.36218)">
    <rect
       style="clip-rule:evenodd;fill:#ffffff;fill-opacity:0;fill-rule:evenodd;stroke-width:0.546348;stroke-linejoin:round;stroke-miterlimit:1.41421"
       id="rect1126"
       width="22"
       height="22"
       x="326"
       y="534.36218" />
    <g
       transform="translate(-26,-28.99996)"
       id="g1134">
      <path
         inkscape:connector-curvature="0"
         d="m 359.5,566.86216 c -1.108,0 -1.8626,0.90056 -2,2 l -1,8 v 4 c 0,1.108 0.892,2 2,2 h 10 c 1.108,0 2,-0.892 2,-2 v -4 l -1,-8 c -0.13743,-1.0994 -0.892,-2 -2,-2 z m 0,1 h 8 c 0.554,0 0.93128,0.45028 1,1 l 1,8 v 4 c 0,0.554 -0.446,1 -1,1 h -10 c -0.554,0 -1,-0.446 -1,-1 v -4 l 1,-8 c 0.0687,-0.54972 0.446,-1 1,-1 z"
         style="fill:#ffffff;fill-opacity:1;fill-rule:evenodd;stroke:#ffffff;stroke-opacity:1;paint-order:fill markers stroke"
         id="path1128" />
      <path
         inkscape:connector-curvature="0"
         d="m 357.4999,575.86216 -0.1355,1 c -0.0744,0.54898 0.45608,1 1.0226,1 h 10.226 c 0.56651,0 1.097,-0.45102 1.0226,-1 l -0.13549,-1 c 0,0.554 -0.32058,1 -0.88709,1 h -10.226 c -0.56651,0 -0.88709,-0.446 -0.88709,-1 z"
         style="fill:#ffffff;fill-opacity:1;fill-rule:evenodd;stroke:#ffffff;stroke-opacity:1;paint-order:fill markers stroke"
         id="path1130" />
      <rect
         x="366"
         y="579.36218"
         width="2"
         height="1"
         style="fill:#ffffff;fill-opacity:1;fill-rule:evenodd;stroke-width:1.41421;paint-order:fill markers stroke"
         id="rect1132" />
    </g>
    <g
       id="g1140"
       transform="translate(-0.5,-25.99998)">
      <path
         style="opacity:0.3;fill:#e74c3c;fill-opacity:1;stroke-width:0.6"
         id="path1136"
         d="m 338,566.3622 a 3,3 0 0 0 -3,3 3,3 0 0 0 3,3 3,3 0 0 0 3,-3 h -3 z"
         inkscape:connector-curvature="0" />
      <circle
         id="circle1138"
         cx="338"
         cy="569.36218"
         r="0.99999565"
         style="fill:#e74c3c;fill-opacity:1;stroke-width:0.499998" />
    </g>
  </g>
  <g
     transform="translate(72)"
     id="disk-quota-critical">
    <rect
       x="24"
       y="0"
       width="22"
       height="22"
       opacity="0"
       stroke-width="1.76"
       id="rect1144"
       style="color:#363636;fill:#363636" />
    <g
       transform="translate(-1.0039883,21.999997)"
       id="g1164">
      <path
         inkscape:connector-curvature="0"
         id="path1146"
         d="m 44.00003,-11 c -0.55228,0 -1,0.44772 -1,1 0,0.55228 0.44772,4 1,4 0.55228,0 1,-3.44772 1,-4 0,-0.55228 -0.44772,-1 -1,-1 z m 0,6 a 1,1 0 0 0 -1,1 1,1 0 0 0 1,1 1,1 0 0 0 1,-1 1,1 0 0 0 -1,-1 z"
         style="fill:#e74c3c;fill-opacity:1;stroke:none" />
      <g
         id="g1162"
         transform="translate(-1)">
        <g
           transform="translate(-328,-585.36218)"
           id="g1154">
          <path
             inkscape:connector-curvature="0"
             d="m 359.5,566.86216 c -1.108,0 -1.8626,0.90056 -2,2 l -1,8 v 4 c 0,1.108 0.892,2 2,2 h 10 c 1.108,0 2,-0.892 2,-2 v -4 l -1,-8 c -0.13743,-1.0994 -0.892,-2 -2,-2 z m 0,1 h 8 c 0.554,0 0.93128,0.45028 1,1 l 1,8 v 4 c 0,0.554 -0.446,1 -1,1 h -10 c -0.554,0 -1,-0.446 -1,-1 v -4 l 1,-8 c 0.0687,-0.54972 0.446,-1 1,-1 z"
             style="fill:#ffffff;fill-opacity:1;fill-rule:evenodd;stroke:#ffffff;stroke-opacity:1;paint-order:fill markers stroke"
             id="path1148" />
          <path
             inkscape:connector-curvature="0"
             d="m 357.4999,575.86216 -0.1355,1 c -0.0744,0.54898 0.45608,1 1.0226,1 h 10.226 c 0.56651,0 1.097,-0.45102 1.0226,-1 l -0.13549,-1 c 0,0.554 -0.32058,1 -0.88709,1 h -10.226 c -0.56651,0 -0.88709,-0.446 -0.88709,-1 z"
             style="fill:#ffffff;fill-opacity:1;fill-rule:evenodd;stroke:#ffffff;stroke-opacity:1;paint-order:fill markers stroke"
             id="path1150" />
          <rect
             x="366"
             y="579.36218"
             width="2"
             height="1"
             style="fill:#ffffff;fill-opacity:1;fill-rule:evenodd;stroke-width:1.41421;paint-order:fill markers stroke"
             id="rect1152" />
        </g>
        <g
           id="g1160"
           transform="translate(-302.5,-582.3622)">
          <path
             style="opacity:0.3;fill:#e74c3c;fill-opacity:1;stroke-width:0.6"
             id="path1156"
             d="m 338,566.3622 a 3,3 0 0 0 -3,3 3,3 0 0 0 3,3 3,3 0 0 0 3,-3 h -3 z"
             inkscape:connector-curvature="0" />
          <circle
             id="circle1158"
             cx="338"
             cy="569.36218"
             r="0.99999565"
             style="fill:#e74c3c;fill-opacity:1;stroke-width:0.499998" />
        </g>
      </g>
    </g>
  </g>
</svg>
