<?xml version="1.0" encoding="UTF-8"?>
<svg width="32" height="32" version="1.1" viewBox="0 0 32 32" xmlns="http://www.w3.org/2000/svg" xmlns:cc="http://creativecommons.org/ns#" xmlns:dc="http://purl.org/dc/elements/1.1/" xmlns:rdf="http://www.w3.org/1999/02/22-rdf-syntax-ns#">
 <metadata>
  <rdf:RDF>
   <cc:Work rdf:about="">
    <dc:format>image/svg+xml</dc:format>
    <dc:type rdf:resource="http://purl.org/dc/dcmitype/StillImage"/>
    <dc:title/>
   </cc:Work>
  </rdf:RDF>
 </metadata>
 <defs>
  <style id="current-color-scheme" type="text/css">.ColorScheme-Text {
        color:#31363b;
      }</style>
  <style type="text/css">.ColorScheme-Text {
        color:#31363b;
      }</style>
 </defs>
 <path d="m-22 10v22h22v-22z" fill="none"/>
 <g transform="translate(-375 -497.36)">
  <g transform="translate(-86 334.36)" fill="#ebebeb">
   <g fill="#fff" fill-rule="evenodd">
    <path d="m446 176c-1.108 0-1.8626 0.90056-2 2l-1 8v4c0 1.108 0.892 2 2 2h10c1.108 0 2-0.892 2-2v-4l-1-8c-0.13743-1.0994-0.892-2-2-2zm0 1h8c0.554 0 0.93128 0.45028 1 1l1 8v4c0 0.554-0.446 1-1 1h-10c-0.554 0-1-0.446-1-1v-4l1-8c0.0687-0.54972 0.446-1 1-1z" style="paint-order:fill markers stroke"/>
    <path d="m444 186-0.1355 1c-0.0744 0.54898 0.45608 1 1.0226 1h10.226c0.56651 0 1.097-0.45102 1.0226-1l-0.13549-1c0 0.554-0.32058 1-0.88709 1h-10.226c-0.56651 0-0.88709-0.446-0.88709-1z" style="paint-order:fill markers stroke"/>
    <rect x="454" y="189" width="1" height="1" style="paint-order:fill markers stroke"/>
   </g>
  </g>
  <path d="m359 511.26s-2 9.0816-1 10.091 11 1.0091 12 0-1-10.091-1-10.091zm2.8809 1.0051 0.70508 0.66417-1.4141 1.3264-0.70703-0.6622zm4.2402 0 1.4141 1.3283-0.70704 0.6622-1.4141-1.3264zm-2.1191 1.4426c1.098 0 2 0.84304 2 1.8723s-0.902 1.8762-2 1.8762c-1.1 0-2-0.84698-2-1.8762s0.9-1.8723 2-1.8723zm0 0.93614c-0.559 0-1 0.41345-1 0.93615 0 0.5237 0.441 0.93812 1 0.93812 0.557 0 1-0.41446 1-0.93615 0-0.52471-0.443-0.93812-1-0.93812zm-1 3.7485h2v0.93614h-2z" fill="#fff"/>
 </g>
 <path d="m0 0v32h32v-32z" fill="none"/>
 <g transform="translate(-275.82 -529)">
  <g transform="matrix(1.4545 0 0 1.4545 -362.73 277.36)" fill="#ebebeb" stroke-width=".6875">
   <g fill="#fff" fill-rule="evenodd" stroke-width=".6875">
    <path d="m446 176c-1.108 0-1.8626 0.90056-2 2l-1 8v4c0 1.108 0.892 2 2 2h10c1.108 0 2-0.892 2-2v-4l-1-8c-0.13743-1.0994-0.892-2-2-2zm0 1h8c0.554 0 0.93128 0.45028 1 1l1 8v4c0 0.554-0.446 1-1 1h-10c-0.554 0-1-0.446-1-1v-4l1-8c0.0687-0.54972 0.446-1 1-1z" style="paint-order:fill markers stroke"/>
    <path d="m444 186-0.1355 1c-0.0744 0.54898 0.45608 1 1.0226 1h10.226c0.56651 0 1.097-0.45102 1.0226-1l-0.13549-1c0 0.554-0.32058 1-0.88709 1h-10.226c-0.56651 0-0.88709-0.446-0.88709-1z" style="paint-order:fill markers stroke"/>
    <rect x="454" y="189" width="1" height="1" style="paint-order:fill markers stroke"/>
   </g>
  </g>
  <path transform="translate(276 561.36)" d="m9-27c-1 1-2 13-2 15 12.895 0.80592 12 1 18 0 0-5-1-10-2-15zm3.7344 1.6328 1.0273 0.95703-2.0566 1.9102-1.0293-0.95508zm6.168 0 2.0586 1.9121-1.0293 0.95508-2.0566-1.9102zm-3.082 2.0762c1.5971 0 2.9082 1.2175 2.9082 2.7012 0 1.4836-1.3111 2.7031-2.9082 2.7031-1.6 0-2.9102-1.2195-2.9102-2.7031 0-1.4836 1.3102-2.7012 2.9102-2.7012zm0 1.3496c-0.81309 0-1.4551 0.59811-1.4551 1.3516 0 0.75491 0.64199 1.3516 1.4551 1.3516 0.81018 0 1.4531-0.59761 1.4531-1.3496 0-0.75636-0.64294-1.3535-1.4531-1.3535zm-1.4551 5.4043h2.9082v1.3516h-2.9082z" fill="#fff"/>
 </g>
 <g transform="translate(-2.6462 -.55127)">
  <path d="m-41.365 13.672v16h16v-16z" fill="none"/>
  <g transform="translate(-397.37 -496.69)">
   <g transform="translate(-86 334.36)" fill="#ebebeb">
    <g fill="#fff" fill-rule="evenodd">
     <path d="m446 176c-1.108 0-1.8626 0.90056-2 2l-1 8v4c0 1.108 0.892 2 2 2h10c1.108 0 2-0.892 2-2v-4l-1-8c-0.13743-1.0994-0.892-2-2-2zm0 1h8c0.554 0 0.93128 0.45028 1 1l1 8v4c0 0.554-0.446 1-1 1h-10c-0.554 0-1-0.446-1-1v-4l1-8c0.0687-0.54972 0.446-1 1-1z" style="paint-order:fill markers stroke"/>
     <path d="m444 186-0.1355 1c-0.0744 0.54898 0.45608 1 1.0226 1h10.226c0.56651 0 1.097-0.45102 1.0226-1l-0.13549-1c0 0.554-0.32058 1-0.88709 1h-10.226c-0.56651 0-0.88709-0.446-0.88709-1z" style="paint-order:fill markers stroke"/>
     <rect x="454" y="189" width="1" height="1" style="paint-order:fill markers stroke"/>
    </g>
   </g>
   <path d="m359 511.31s-2 9.0451-1 10.05c1 1.005 11 1.005 12 0 1-1.005-1-10.05-1-10.05zm2.8809 1.0011 0.70508 0.6615-1.4141 1.321-0.70703-0.65954zm4.2402 0 1.4141 1.323-0.70704 0.65954-1.4141-1.321zm-2.1191 1.4368c1.098 0 2 0.83965 2 1.8648s-0.902 1.8687-2 1.8687c-1.1 0-2-0.84357-2-1.8687s0.9-1.8648 2-1.8648zm0 0.93238c-0.559 0-1 0.41179-1 0.93238 0 0.5216 0.441 0.93434 1 0.93434 0.557 0 1-0.41279 1-0.93238 0-0.5226-0.443-0.93434-1-0.93434zm-1 3.7334h2v0.93238h-2z" fill="#fff"/>
  </g>
 </g>
</svg>
