<?xml version="1.0" encoding="UTF-8" standalone="no"?>
<svg
   xmlns:dc="http://purl.org/dc/elements/1.1/"
   xmlns:cc="http://creativecommons.org/ns#"
   xmlns:rdf="http://www.w3.org/1999/02/22-rdf-syntax-ns#"
   xmlns:svg="http://www.w3.org/2000/svg"
   xmlns="http://www.w3.org/2000/svg"
   xmlns:sodipodi="http://sodipodi.sourceforge.net/DTD/sodipodi-0.dtd"
   xmlns:inkscape="http://www.inkscape.org/namespaces/inkscape"
   version="1.1"
   viewBox="0 0 54 32"
   id="svg15"
   sodipodi:docname="nepomuk.svg"
   inkscape:version="0.92.4 5da689c313, 2019-01-14">
  <metadata
     id="metadata19">
    <rdf:RDF>
      <cc:Work
         rdf:about="">
        <dc:format>image/svg+xml</dc:format>
        <dc:type
           rdf:resource="http://purl.org/dc/dcmitype/StillImage" />
        <dc:title></dc:title>
      </cc:Work>
    </rdf:RDF>
  </metadata>
  <sodipodi:namedview
     pagecolor="#646464"
     bordercolor="#666666"
     borderopacity="1"
     objecttolerance="10"
     gridtolerance="10"
     guidetolerance="10"
     inkscape:pageopacity="0"
     inkscape:pageshadow="2"
     inkscape:window-width="1920"
     inkscape:window-height="1019"
     id="namedview17"
     showgrid="false"
     inkscape:zoom="6.1296296"
     inkscape:cx="27"
     inkscape:cy="16"
     inkscape:window-x="0"
     inkscape:window-y="36"
     inkscape:window-maximized="1"
     inkscape:current-layer="svg15" />
  <defs
     id="defs3">
    <style
       id="current-color-scheme"
       type="text/css">.ColorScheme-Text {
        color:#31363b;
      }
      .ColorScheme-Background {
        color:#eff0f1;
      }
      .ColorScheme-Highlight {
        color:#3daee9;
      }
      .ColorScheme-ViewText {
        color:#31363b;
      }
      .ColorScheme-ViewBackground {
        color:#fcfcfc;
      }
      .ColorScheme-ViewHover {
        color:#93cee9;
      }
      .ColorScheme-ViewFocus{
        color:#3daee9;
      }
      .ColorScheme-ButtonText {
        color:#31363b;
      }
      .ColorScheme-ButtonBackground {
        color:#eff0f1;
      }
      .ColorScheme-ButtonHover {
        color:#93cee9;
      }
      .ColorScheme-ButtonFocus{
        color:#3daee9;
      }</style>
  </defs>
  <g
     id="22-22-nepomuk">
    <path
       d="m0 10v22h22v-22z"
       fill="none"
       id="path5" />
    <path
       d="m9.4939 13.994c-3.026 0-5.5 2.474-5.5 5.5s2.474 5.5 5.5 5.5a5.46 5.46 0 0 0 3.112-0.975l3.681 3.682a1 1 0 1 0 1.414-1.414l-3.681-3.682a5.46 5.46 0 0 0 0.974-3.111c0-3.026-2.474-5.5-5.5-5.5zm0 1.25a4.25 4.25 0 0 1 4.25 4.25 4.25 4.25 0 0 1-4.25 4.25 4.25 4.25 0 0 1-4.25-4.25 4.25 4.25 0 0 1 4.25-4.25z"
       color="#000000"
       fill="#333"
       font-weight="400"
       overflow="visible"
       style="font-feature-settings:normal;font-variant-alternates:normal;font-variant-caps:normal;font-variant-ligatures:normal;font-variant-numeric:normal;font-variant-position:normal;isolation:auto;mix-blend-mode:normal;shape-padding:0;text-decoration-color:#000000;text-decoration-line:none;text-decoration-style:solid;text-indent:0;text-orientation:mixed;text-transform:none;white-space:normal;fill:#ffffff;fill-opacity:1"
       id="path7" />
  </g>
  <g
     id="nepomuk">
    <path
       d="m22 0v32h32v-32z"
       fill="none"
       id="path10" />
    <path
       d="m29.125 7.1247a9 9 0 0 0 0 12.728 9 9 0 0 0 11.167 1.2347c0.04787 0.06034 0.09056 0.12371 0.14639 0.17954l5.6569 5.6569c0.78347 0.78347 2.045 0.78347 2.8284 0s0.78347-2.045 0-2.8284l-5.6569-5.6569c-0.05536-0.05536-0.11836-0.09748-0.17816-0.14501a9 9 0 0 0-1.2361-11.169 9 9 0 0 0-12.728 0zm1.4142 1.4142a7 7 0 0 1 9.8995 0 7 7 0 0 1 0 9.8995 7 7 0 0 1-9.8995 0 7 7 0 0 1 0-9.8995z"
       fill="#333"
       fill-rule="evenodd"
       style="paint-order:fill markers stroke;fill:#ffffff;fill-opacity:1"
       id="path12" />
  </g>
</svg>
