<?xml version="1.0" encoding="UTF-8" standalone="no"?>
<svg
   xmlns:dc="http://purl.org/dc/elements/1.1/"
   xmlns:cc="http://creativecommons.org/ns#"
   xmlns:rdf="http://www.w3.org/1999/02/22-rdf-syntax-ns#"
   xmlns:svg="http://www.w3.org/2000/svg"
   xmlns="http://www.w3.org/2000/svg"
   xmlns:sodipodi="http://sodipodi.sourceforge.net/DTD/sodipodi-0.dtd"
   xmlns:inkscape="http://www.inkscape.org/namespaces/inkscape"
   version="1.1"
   viewBox="0 0 32 32"
   id="svg15"
   sodipodi:docname="nepomuk.svg"
   inkscape:version="0.92.4 5da689c313, 2019-01-14"
   width="32"
   height="32">
  <metadata
     id="metadata19">
    <rdf:RDF>
      <cc:Work
         rdf:about="">
        <dc:format>image/svg+xml</dc:format>
        <dc:type
           rdf:resource="http://purl.org/dc/dcmitype/StillImage" />
        <dc:title></dc:title>
      </cc:Work>
    </rdf:RDF>
  </metadata>
  <sodipodi:namedview
     pagecolor="#c8c8c8"
     bordercolor="#666666"
     borderopacity="1"
     objecttolerance="10"
     gridtolerance="10"
     guidetolerance="10"
     inkscape:pageopacity="0"
     inkscape:pageshadow="2"
     inkscape:window-width="1920"
     inkscape:window-height="973"
     id="namedview17"
     showgrid="false"
     inkscape:zoom="8.6686053"
     inkscape:cx="11.614148"
     inkscape:cy="17.431263"
     inkscape:window-x="0"
     inkscape:window-y="36"
     inkscape:window-maximized="1"
     inkscape:current-layer="svg15" />
  <defs
     id="defs3">
    <style
       id="current-color-scheme"
       type="text/css">.ColorScheme-Text {
        color:#31363b;
      }
      .ColorScheme-Background {
        color:#eff0f1;
      }
      .ColorScheme-Highlight {
        color:#3daee9;
      }
      .ColorScheme-ViewText {
        color:#31363b;
      }
      .ColorScheme-ViewBackground {
        color:#fcfcfc;
      }
      .ColorScheme-ViewHover {
        color:#93cee9;
      }
      .ColorScheme-ViewFocus{
        color:#3daee9;
      }
      .ColorScheme-ButtonText {
        color:#31363b;
      }
      .ColorScheme-ButtonBackground {
        color:#eff0f1;
      }
      .ColorScheme-ButtonHover {
        color:#93cee9;
      }
      .ColorScheme-ButtonFocus{
        color:#3daee9;
      }</style>
  </defs>
  <g
     id="22-22-nepomuk"
     transform="translate(-29.07042)">
    <path
       d="M 0,10 V 32 H 22 V 10 Z"
       id="path5"
       inkscape:connector-curvature="0"
       style="fill:none" />
    <path
       d="m 9.4939,13.994 c -3.026,0 -5.5,2.474 -5.5,5.5 0,3.026 2.474,5.5 5.5,5.5 a 5.46,5.46 0 0 0 3.112,-0.975 l 3.681,3.682 a 1,1 0 1 0 1.414,-1.414 l -3.681,-3.682 a 5.46,5.46 0 0 0 0.974,-3.111 c 0,-3.026 -2.474,-5.5 -5.5,-5.5 z m 0,1.25 a 4.25,4.25 0 0 1 4.25,4.25 4.25,4.25 0 0 1 -4.25,4.25 4.25,4.25 0 0 1 -4.25,-4.25 4.25,4.25 0 0 1 4.25,-4.25 z"
       font-weight="400"
       overflow="visible"
       style="color:#000000;font-weight:400;font-variant-ligatures:normal;font-variant-position:normal;font-variant-caps:normal;font-variant-numeric:normal;font-variant-alternates:normal;font-feature-settings:normal;text-indent:0;text-decoration:none;text-decoration-line:none;text-decoration-style:solid;text-decoration-color:#000000;text-transform:none;text-orientation:mixed;white-space:normal;shape-padding:0;overflow:visible;isolation:auto;mix-blend-mode:normal;fill:#ffffff;fill-opacity:1"
       id="path7"
       inkscape:connector-curvature="0" />
  </g>
  <g
     id="nepomuk"
     transform="translate(-22)">
    <path
       d="M 22,0 V 32 H 54 V 0 Z"
       id="path10"
       inkscape:connector-curvature="0"
       style="fill:none" />
    <path
       d="m 29.125,7.1247 a 9,9 0 0 0 0,12.728 9,9 0 0 0 11.167,1.2347 c 0.04787,0.06034 0.09056,0.12371 0.14639,0.17954 l 5.6569,5.6569 c 0.78347,0.78347 2.045,0.78347 2.8284,0 0.7834,-0.78347 0.78347,-2.045 0,-2.8284 l -5.6569,-5.6569 c -0.05536,-0.05536 -0.11836,-0.09748 -0.17816,-0.14501 a 9,9 0 0 0 -1.2361,-11.169 9,9 0 0 0 -12.728,0 z m 1.4142,1.4142 a 7,7 0 0 1 9.8995,0 7,7 0 0 1 0,9.8995 7,7 0 0 1 -9.8995,0 7,7 0 0 1 0,-9.8995 z"
       style="fill:#ffffff;fill-opacity:1;fill-rule:evenodd;paint-order:fill markers stroke"
       id="path12"
       inkscape:connector-curvature="0" />
  </g>
</svg>
