<?xml version="1.0" encoding="UTF-8" standalone="no"?>
<svg
   xmlns:dc="http://purl.org/dc/elements/1.1/"
   xmlns:cc="http://creativecommons.org/ns#"
   xmlns:rdf="http://www.w3.org/1999/02/22-rdf-syntax-ns#"
   xmlns:svg="http://www.w3.org/2000/svg"
   xmlns="http://www.w3.org/2000/svg"
   xmlns:sodipodi="http://sodipodi.sourceforge.net/DTD/sodipodi-0.dtd"
   xmlns:inkscape="http://www.inkscape.org/namespaces/inkscape"
   id="svg4379"
   width="200"
   height="200"
   inkscape:version="0.92.4 5da689c313, 2019-01-14"
   sodipodi:docname="kde.svg"
   version="1.1"
   viewBox="0 0 200 200">
  <metadata
     id="metadata10">
    <rdf:RDF>
      <cc:Work
         rdf:about="">
        <dc:format>image/svg+xml</dc:format>
        <dc:type
           rdf:resource="http://purl.org/dc/dcmitype/StillImage" />
      </cc:Work>
    </rdf:RDF>
  </metadata>
  <defs
     id="defs8" />
  <sodipodi:namedview
     id="namedview39"
     bordercolor="#666666"
     borderopacity="1"
     gridtolerance="10"
     guidetolerance="10"
     inkscape:current-layer="svg4379"
     inkscape:cx="-179.37608"
     inkscape:cy="27.367815"
     inkscape:pageopacity="0"
     inkscape:pageshadow="2"
     inkscape:window-height="1019"
     inkscape:window-maximized="1"
     inkscape:window-width="1920"
     inkscape:window-x="0"
     inkscape:window-y="36"
     inkscape:zoom="1.4124458"
     objecttolerance="10"
     pagecolor="#dfe2e4"
     showgrid="true"
     inkscape:snap-bbox="true"
     inkscape:bbox-nodes="true"
     inkscape:snap-bbox-edge-midpoints="true">
    <inkscape:grid
       id="grid839"
       type="xygrid" />
  </sodipodi:namedview>
  <path
     id="22-22-start-here-kde"
     p-id="148380"
     d="m 174.99942,148.87354 a 1.1499949,1.129369 0 0 1 -0.31666,0.7925 1.0999951,1.0802658 0 0 1 -0.78667,0.33417 h -21.08998 a 1.0999951,1.0802658 0 0 1 -0.79334,-0.33417 1.183328,1.1621042 0 0 1 -0.32333,-0.7925 V 51.125906 c 0,-0.622 0.5,-1.126116 1.11667,-1.126116 h 21.0899 c 0.61,0 1.10399,0.500916 1.10399,1.126116 z m -84.382843,0 a 1.1499949,1.129369 0 0 1 -0.32084,0.7925 1.0999951,1.0802658 0 0 1 -0.77916,0.33417 h -21.10665 a 1.1233283,1.1031805 0 0 1 -0.78667,-0.33417 1.1466615,1.1260954 0 0 1 -0.31,-0.7925 V 90.07109 c 0,-0.615833 0.49,-1.126082 1.09658,-1.126082 h 21.10657 c 0.60667,0 1.1,0.510832 1.1,1.126082 z m 42.623043,0 V 78.819933 c 0,-15.919145 -12.58649,-28.820143 -28.11656,-28.820143 H 26.103377 a 1.1233283,1.1031805 0 0 0 -1.103249,1.119566 v 97.754184 c 0,0.62834 0.493333,1.12617 1.103249,1.12617 h 21.10998 a 1.1233283,1.1031805 0 0 0 1.09992,-1.12617 V 72.141938 c 0,-0.621666 0.49333,-1.129332 1.1,-1.129332 h 45.39654 c 8.519913,0 15.433163,7.083911 15.433163,15.824237 v 62.033447 c 0,0.62834 0.49,1.12942 1.10008,1.12942 h 20.79331 a 1.1266615,1.1064541 0 0 0 1.10325,-1.12617 z"
     inkscape:connector-curvature="0"
     style="fill:#fafafa;fill-opacity:1;stroke-width:0.10322783" />
</svg>
